{"glyphs":{":":{"x_min":0,"x_max":131,"ha":131,"o":"m 16 383 q 16 404 30 418 q 44 433 65 433 q 86 433 100 418 q 115 404 115 383 q 115 362 100 348 q 86 334 65 334 q 44 334 30 348 q 16 362 16 383 z m 16 49 q 16 70 30 84 q 44 99 65 99 q 86 99 100 84 q 115 70 115 49 q 115 28 100 14 q 86 0 65 0 q 44 0 30 14 q 16 28 16 49 z"},"$":{"x_min":0,"x_max":436,"ha":436,"o":"m 261 717 q 259 718 275 725 q 291 732 312 737 q 334 742 354 742 q 373 741 377 728 q 380 716 374 685 q 422 673 433 638 q 441 612 422 580 q 402 546 355 508 q 347 502 341 510 q 336 517 343 524 q 383 557 402 585 q 420 613 414 633 q 410 643 398 652 q 386 660 369 665 q 358 618 336 550 q 313 483 286 407 q 289 405 292 402 q 295 399 299 397 q 329 373 358 347 q 387 321 406 291 q 426 261 432 226 q 437 191 419 149 q 391 83 303 48 q 271 35 233 28 q 195 21 158 21 l 130 21 q 120 1 114 -10 q 108 -21 106 -20 q 101 -19 111 21 q 93 21 74 24 q 56 26 40 32 q 25 37 14 47 q 2 57 -1 73 q -7 100 19 130 q 47 162 104 196 q 113 200 118 192 q 122 183 114 178 q 79 157 59 140 q 39 124 30 112 q 21 99 20 90 q 18 81 19 77 q 22 65 32 58 q 43 51 56 47 q 70 43 84 42 q 98 41 109 41 l 116 41 q 123 69 134 106 q 146 144 159 188 q 172 232 186 280 q 200 328 213 376 l 207 382 q 178 405 154 427 q 129 449 112 474 q 75 531 107 588 q 127 623 158 642 q 188 662 214 672 q 228 677 244 681 q 259 685 274 688 q 273 710 261 717 z m 309 281 q 299 296 286 310 q 274 323 259 337 q 227 250 195 172 q 163 93 140 42 q 166 45 193 53 q 220 61 244 76 q 269 90 289 110 q 309 130 321 157 q 349 221 309 281 z m 204 578 q 184 543 195 512 q 206 482 234 453 q 248 509 259 558 q 270 608 273 644 q 251 631 232 614 q 214 596 204 578 z"},"?":{"x_min":0,"x_max":440,"ha":440,"o":"m 172 164 q 196 195 222 245 q 247 295 270 354 q 293 412 312 472 q 330 533 341 584 q 352 634 353 670 q 354 706 343 715 q 332 724 312 716 q 293 709 267 690 q 241 670 209 638 q 177 607 141 568 q 134 562 127 569 q 119 576 126 583 q 174 637 214 673 q 255 709 287 729 q 319 749 340 750 q 362 750 382 742 q 418 728 429 684 q 440 639 434 579 q 427 519 408 451 q 388 383 364 322 q 339 261 314 215 q 288 169 270 153 q 261 145 242 142 q 222 139 204 140 q 186 142 175 148 q 164 154 172 164 z m 143 49 q 143 28 157 14 q 171 0 192 0 q 213 0 228 14 q 242 28 242 49 q 242 70 228 84 q 213 99 192 99 q 171 99 157 84 q 143 70 143 49 z"},"<":{"x_min":0,"x_max":335,"ha":335,"o":"m 294 430 q 283 431 262 422 q 240 414 214 400 q 187 387 158 371 q 129 355 104 341 q 78 327 58 316 q 39 306 31 305 q 39 299 59 286 q 79 272 106 254 q 132 237 162 218 q 192 200 220 183 q 247 166 269 153 q 291 140 302 135 q 305 133 300 120 q 296 106 288 92 q 280 79 270 72 q 260 64 250 75 q 239 87 218 107 q 198 127 172 151 q 147 175 120 201 q 93 227 69 250 q 45 272 28 289 q 10 306 3 313 q 10 316 28 332 q 45 347 68 368 q 92 390 118 415 q 144 440 168 462 q 193 484 212 500 q 232 516 242 521 q 252 525 262 512 q 272 498 280 480 q 288 461 292 446 q 297 430 294 430 z"},"'":{"x_min":0,"x_max":164,"ha":164,"o":"m 30 606 q 27 607 44 614 q 60 620 82 624 q 103 628 122 626 q 142 624 145 610 q 149 593 143 570 q 137 546 126 520 q 114 494 99 468 q 84 443 70 423 q 55 403 44 391 q 32 379 28 381 q 22 383 25 398 q 28 413 34 434 q 41 456 48 482 q 54 508 56 532 q 59 557 54 576 q 48 596 30 606 z"},"=":{"x_min":0,"x_max":440,"ha":440,"o":"m 336 349 q 336 352 348 338 q 359 324 370 306 q 380 287 385 268 q 390 249 378 241 q 363 231 330 228 q 296 225 254 226 q 213 228 168 233 q 123 238 86 244 q 49 250 25 256 q 1 262 1 267 q 1 273 25 276 q 49 279 85 281 q 121 283 164 286 q 207 290 244 297 q 281 304 307 316 q 333 329 336 349 z m 336 519 q 336 522 348 508 q 359 494 370 476 q 380 457 385 438 q 390 419 378 411 q 363 401 330 398 q 296 395 254 396 q 213 398 168 403 q 123 408 86 414 q 49 420 25 426 q 1 432 1 437 q 1 443 25 446 q 49 449 85 451 q 121 453 164 456 q 207 460 244 467 q 281 474 307 486 q 333 499 336 519 z"},"a":{"x_min":0,"x_max":360,"ha":360,"o":"m 374 214 q 382 210 378 204 q 343 126 312 77 q 290 41 272 22 q 254 4 234 3 q 220 2 212 10 q 203 18 198 32 q 193 45 192 62 q 190 80 190 99 l 190 113 q 187 105 184 98 q 180 90 176 82 q 148 32 117 13 q 107 7 90 2 q 73 -3 59 1 q 17 12 0 62 q -11 92 -10 129 q -9 166 0 202 q 9 239 24 272 q 39 305 56 329 q 72 351 87 364 q 102 377 116 384 q 131 391 145 393 q 159 395 171 395 q 193 395 206 387 q 220 379 228 367 l 226 383 q 225 385 240 389 q 254 393 272 394 q 291 395 307 390 q 323 384 325 368 q 327 353 316 321 q 306 289 291 249 q 276 209 262 166 q 247 124 241 89 q 239 78 237 65 q 235 52 235 41 q 235 30 238 24 q 240 17 246 20 q 253 23 265 36 q 277 50 296 80 q 325 125 364 210 q 367 216 374 214 z m 109 26 q 139 43 163 90 q 187 137 204 205 q 210 237 216 269 q 222 301 226 327 q 222 353 209 365 q 196 377 179 371 q 162 365 145 336 q 128 308 114 272 q 100 237 90 204 q 80 171 77 156 q 72 136 68 108 q 63 80 64 57 q 65 34 74 22 q 84 11 109 26 z"},"L":{"x_min":0,"x_max":711,"ha":711,"o":"m 1357 -108 q 1366 -116 1360 -122 q 1271 -256 1124 -256 q 1075 -256 1024 -243 q 976 -231 928 -210 q 879 -189 830 -163 q 781 -137 732 -108 q 683 -78 635 -48 q 586 -18 540 10 q 494 38 449 61 q 443 56 437 51 q 431 46 424 41 q 358 -5 266 -5 l 263 -5 q 214 -8 184 17 q 158 39 161 69 q 163 80 168 90 q 173 100 184 108 q 207 126 241 133 q 261 138 285 136 q 337 135 402 118 q 418 149 430 188 q 442 226 451 268 q 460 310 466 354 q 472 398 478 441 l 484 487 q 461 490 438 493 q 414 496 391 498 q 328 506 270 512 q 212 519 164 519 q 63 520 35 488 q 18 466 29 427 q 33 418 22 416 q 13 414 9 425 q -5 474 19 502 q 36 522 70 531 q 104 540 161 539 q 210 539 268 532 q 327 526 391 518 q 414 515 438 512 q 463 509 487 507 q 494 554 502 595 q 510 636 524 666 q 532 686 544 701 q 556 716 569 726 q 582 736 596 742 q 609 749 621 753 q 650 762 682 762 q 714 762 743 753 q 757 748 776 740 q 795 733 814 722 q 834 711 852 696 q 870 682 882 664 q 904 628 897 586 q 886 536 842 509 q 797 482 714 476 q 685 474 654 474 q 623 475 588 477 l 588 473 q 583 434 578 393 q 572 352 564 312 q 556 271 544 232 q 533 193 517 158 q 499 120 478 94 q 498 86 518 78 q 538 70 560 60 q 634 27 708 -14 q 781 -55 847 -94 q 890 -119 934 -144 q 977 -170 1020 -190 q 1062 -210 1104 -220 q 1147 -230 1188 -224 q 1228 -217 1267 -190 q 1306 -163 1343 -109 q 1349 -102 1357 -108 z m 866 655 q 855 672 838 685 q 821 698 803 708 q 785 718 768 724 q 751 731 740 734 q 722 738 704 732 q 687 727 671 716 q 655 704 642 688 q 630 673 623 656 q 610 628 603 588 q 596 547 591 497 q 623 495 652 494 q 682 494 710 496 q 860 506 878 593 q 884 626 866 655 z m 196 31 q 210 20 238 16 q 266 12 307 26 q 355 44 385 91 q 356 102 330 109 q 303 116 280 116 l 276 116 q 261 116 248 113 q 219 107 202 94 q 184 81 182 64 q 179 46 196 31 z"},"3":{"x_min":0,"x_max":486,"ha":486,"o":"m 480 680 q 483 673 477 669 l 280 512 q 311 502 340 481 q 357 468 372 452 q 386 436 397 418 q 417 382 425 335 q 431 289 421 244 q 406 169 355 111 q 329 81 296 59 q 264 37 229 26 q 194 15 162 15 q 122 15 89 30 q 57 44 36 71 q 14 96 6 131 q 1 151 2 172 q 4 194 10 215 q 24 259 58 290 q 75 307 96 317 q 117 327 138 332 q 161 336 182 332 q 203 328 220 317 q 228 311 223 303 q 217 295 209 301 q 180 318 142 312 q 103 304 72 276 q 58 262 46 245 q 35 228 29 209 q 24 190 22 172 q 21 153 26 136 q 38 88 63 68 q 88 47 120 48 q 151 49 185 67 q 219 85 248 114 q 277 143 297 178 q 317 213 322 248 q 328 292 324 332 q 319 373 299 408 q 279 442 248 465 q 216 488 176 499 q 171 499 169 506 q 168 512 172 516 l 362 667 l 127 667 q 117 667 117 677 q 117 687 127 687 l 471 687 q 478 687 480 680 z"},";":{"x_min":0,"x_max":201,"ha":201,"o":"m 31 383 q 31 404 45 418 q 59 433 80 433 q 101 433 116 418 q 130 404 130 383 q 130 362 116 348 q 101 334 80 334 q 59 334 45 348 q 31 362 31 383 z m 13 109 q 10 109 18 114 q 27 118 42 124 q 56 129 73 134 q 90 138 105 138 q 129 138 135 120 q 141 103 136 77 q 132 51 120 22 q 107 -8 93 -34 q 79 -59 67 -75 q 55 -91 51 -89 q 45 -87 50 -71 q 54 -55 61 -33 q 68 -11 74 14 q 79 39 77 60 q 75 81 60 95 q 46 109 13 109 z"},"J":{"x_min":0,"x_max":576,"ha":576,"o":"m 626 211 q 630 202 620 198 q 585 183 552 168 q 519 153 487 137 q 477 82 464 24 q 450 -34 428 -86 q 407 -137 374 -178 q 340 -220 290 -242 q 260 -254 236 -254 q 208 -254 191 -240 q 156 -213 167 -154 q 175 -113 204 -68 q 234 -23 284 22 q 328 61 380 96 q 398 186 412 263 q 427 340 440 412 q 453 484 466 556 q 480 627 496 707 q 435 689 384 672 q 332 654 287 635 q 106 561 58 480 q 46 460 38 437 q 31 414 29 393 q 23 339 58 313 q 81 293 111 304 q 132 311 150 329 q 167 347 175 370 q 180 380 189 377 q 197 375 195 365 q 184 337 162 315 q 141 293 117 285 q 75 271 45 297 q 24 312 15 336 q 6 361 9 393 q 11 417 20 442 q 28 468 41 490 q 70 538 136 581 q 165 600 202 618 q 238 636 280 654 q 328 674 382 692 q 436 710 502 729 q 506 733 511 732 l 513 732 q 531 737 550 742 q 568 747 588 752 q 593 754 597 750 q 603 746 599 741 l 493 166 q 493 164 492 164 q 492 163 492 161 q 521 175 551 189 q 581 203 613 216 q 623 219 626 211 z m 187 -157 q 182 -180 188 -200 q 195 -221 210 -223 q 227 -225 244 -212 q 261 -199 277 -178 q 293 -156 308 -128 q 322 -100 334 -70 q 347 -38 356 -2 q 366 33 374 69 q 332 39 297 7 q 251 -35 222 -77 q 194 -119 187 -157 z"},"V":{"x_min":0,"x_max":1090,"ha":1090,"o":"m 1086 688 q 1094 646 1086 581 q 1078 520 1058 446 q 1037 371 1005 291 q 984 237 960 186 q 936 135 909 87 q 880 35 850 -10 q 821 -54 791 -92 q 723 -175 659 -215 q 600 -251 547 -251 q 533 -251 520 -248 q 488 -243 471 -217 q 447 -180 459 -90 q 465 -50 476 -4 q 487 42 500 93 q 511 136 522 182 q 533 228 542 274 q 550 320 556 366 q 561 411 560 453 q 558 550 524 612 q 489 675 420 708 q 375 729 322 729 q 268 729 217 709 q 165 688 121 648 q 77 609 51 559 q 25 508 20 453 q 15 398 34 351 q 53 304 92 272 q 131 241 182 230 q 192 228 190 219 q 188 209 178 211 q 121 222 78 257 q 36 292 16 343 q -5 394 0 454 q 5 513 34 569 q 61 622 108 664 q 154 705 210 728 q 240 740 279 746 q 318 753 358 754 q 399 754 438 748 q 477 741 508 726 q 589 688 626 612 q 659 547 660 451 q 660 407 655 360 q 650 314 641 268 q 632 221 620 174 q 609 128 598 84 q 584 27 570 -28 q 557 -83 552 -126 q 546 -170 552 -196 q 558 -222 583 -221 q 605 -220 631 -206 q 657 -192 683 -172 q 709 -151 733 -126 q 757 -102 775 -79 q 834 -7 889 91 q 944 189 987 298 q 1018 377 1038 450 q 1058 523 1066 583 q 1074 645 1066 684 q 1059 724 1038 738 q 1030 743 1035 752 q 1041 760 1049 755 q 1077 735 1086 688 z"},"\"":{"x_min":0,"x_max":336,"ha":336,"o":"m 36 606 q 33 607 50 614 q 66 620 88 624 q 109 628 128 626 q 148 624 151 610 q 155 593 149 570 q 143 546 132 520 q 120 494 105 468 q 90 443 76 423 q 61 403 50 391 q 38 379 34 381 q 28 383 31 398 q 34 413 40 434 q 47 456 54 482 q 60 508 62 532 q 65 557 60 576 q 54 596 36 606 z m 196 606 q 193 607 210 614 q 226 620 248 624 q 269 628 288 626 q 308 624 311 610 q 315 593 309 570 q 303 546 292 520 q 280 494 265 468 q 250 443 236 423 q 221 403 210 391 q 198 379 194 381 q 188 383 191 398 q 194 413 200 434 q 207 456 214 482 q 220 508 222 532 q 225 557 220 576 q 214 596 196 606 z"},"7":{"x_min":0,"x_max":443,"ha":443,"o":"m 430 687 q 437 687 439 680 q 441 674 436 669 q 436 669 426 660 q 416 650 398 631 q 381 612 358 584 q 334 555 308 516 q 288 487 266 448 q 243 409 220 361 l 288 360 q 292 360 295 357 q 298 354 297 350 q 297 342 287 340 l 211 341 q 181 276 152 196 q 124 116 102 18 q 100 11 84 7 q 67 3 48 3 q 30 3 16 8 q 1 12 3 23 q 20 103 45 178 q 70 253 100 323 l 109 343 l 45 344 q 35 344 35 354 q 35 364 45 364 l 119 363 q 140 408 163 449 q 186 490 212 528 q 247 581 276 615 q 306 649 324 666 l 111 665 l 72 582 q 68 572 59 577 q 50 581 54 590 l 96 679 q 98 685 105 685 l 430 687 z"},"S":{"x_min":0,"x_max":755,"ha":755,"o":"m 867 678 q 882 655 882 630 q 882 604 870 580 q 859 556 837 536 q 815 517 785 506 q 722 483 663 483 q 631 483 598 489 q 600 447 608 404 q 617 360 628 315 q 639 267 649 218 q 659 168 662 119 q 664 70 656 22 q 649 -27 625 -75 q 602 -122 560 -160 q 519 -197 465 -222 q 396 -253 320 -256 q 244 -258 176 -242 q 96 -223 53 -167 q 34 -142 25 -111 q 16 -80 18 -44 q 20 -10 30 24 q 41 58 60 91 q 76 120 98 145 q 119 170 142 189 q 194 231 252 240 q 283 245 314 238 q 345 232 371 216 q 431 179 428 115 q 428 111 424 108 q 421 105 417 104 q 412 103 409 105 q 406 107 408 112 q 410 138 396 160 q 383 182 357 198 q 334 212 306 218 q 278 225 252 220 q 201 213 155 177 q 109 141 78 85 q 40 19 38 -45 q 36 -109 70 -153 q 97 -188 136 -206 q 175 -225 219 -229 q 263 -233 310 -224 q 356 -214 398 -194 q 439 -173 473 -142 q 507 -110 527 -70 q 549 -25 556 22 q 563 69 560 116 q 557 164 548 212 q 538 260 528 307 q 515 362 505 414 q 495 466 496 517 q 473 526 448 536 q 424 546 401 556 q 353 578 308 595 q 262 612 221 612 q 112 612 58 535 q 44 517 36 496 q 28 474 23 451 q 21 433 22 417 q 23 401 28 393 q 30 390 29 386 q 28 381 24 379 q 20 376 16 376 q 12 377 10 380 q 4 390 2 408 q 0 427 4 450 q 7 472 16 496 q 25 521 41 544 q 52 559 68 574 q 84 590 106 603 q 129 616 158 624 q 187 632 225 632 q 269 632 316 614 q 362 597 412 575 q 433 566 454 557 q 475 548 497 540 q 500 583 517 625 q 543 685 597 718 q 619 732 646 738 q 672 745 699 745 q 718 745 743 742 q 768 740 796 730 q 847 714 867 678 z m 851 583 q 861 604 860 626 q 860 647 849 666 q 831 698 798 708 q 764 719 729 712 q 694 705 662 682 q 631 658 616 622 q 605 596 601 568 q 597 539 596 510 q 641 502 687 504 q 733 506 782 524 q 829 542 851 583 z"},"}":{"x_min":0,"x_max":308,"ha":308,"o":"m 14 -161 q 4 -159 7 -149 q 8 -145 12 -142 q 15 -140 19 -142 q 41 -150 54 -128 q 68 -106 78 -68 q 88 -29 96 20 q 104 68 115 113 q 126 158 143 194 q 160 229 188 242 q 210 247 219 256 q 228 265 230 275 q 233 292 224 302 q 215 313 204 322 q 192 330 182 338 q 172 345 172 356 q 182 401 188 455 q 194 509 191 555 q 188 601 174 630 q 159 659 127 654 q 122 653 119 656 q 116 659 116 663 q 114 674 125 674 q 146 676 164 678 q 182 679 197 679 q 262 679 284 653 q 295 641 298 622 q 302 604 300 579 q 297 554 290 521 q 283 488 273 446 l 252 353 q 250 333 258 325 q 265 317 276 310 q 287 304 297 296 q 307 287 309 268 q 311 260 307 250 q 303 241 289 234 q 281 229 272 226 q 262 224 252 222 q 247 221 240 220 q 233 218 231 216 q 214 192 206 166 q 197 139 193 112 q 189 84 190 56 q 190 27 191 0 q 192 -25 192 -48 q 192 -71 189 -91 q 186 -111 179 -127 q 172 -143 158 -154 q 117 -188 14 -161 z"},"Z":{"x_min":0,"x_max":833,"ha":833,"o":"m 1260 -98 q 1265 -103 1259 -112 q 1230 -166 1179 -198 q 1128 -231 1062 -246 q 997 -262 921 -264 q 845 -267 765 -261 q 685 -255 604 -244 q 524 -233 450 -222 q 376 -212 312 -204 q 248 -197 202 -198 q 158 -200 122 -212 q 86 -223 61 -247 q 56 -252 52 -251 q 49 -250 47 -247 q 45 -244 45 -240 q 45 -236 47 -233 q 85 -194 134 -138 q 183 -83 238 -18 q 294 48 354 120 q 414 192 472 264 q 531 337 586 406 q 642 476 690 536 q 737 595 774 641 q 810 687 831 714 q 799 702 766 697 q 734 692 702 692 q 657 692 613 699 q 569 706 525 715 q 491 721 458 727 q 426 733 394 735 q 348 738 298 712 q 249 687 213 642 q 183 604 172 562 q 162 519 174 481 q 178 472 167 468 l 164 468 q 157 468 155 475 q 141 522 154 570 q 159 592 170 614 q 182 635 198 655 q 216 678 239 697 q 262 716 288 730 q 344 758 395 755 q 428 753 462 747 q 496 741 529 734 q 569 726 610 720 q 652 713 694 712 q 736 712 778 720 q 820 728 861 749 l 964 749 q 970 749 973 744 q 976 739 972 733 q 971 732 949 704 q 927 676 890 629 q 852 582 802 520 q 752 457 694 386 q 637 314 574 238 q 512 161 450 87 q 389 13 331 -55 q 273 -123 224 -178 q 278 -164 343 -162 q 408 -161 480 -166 q 551 -172 626 -181 q 702 -190 776 -196 q 850 -203 920 -204 q 991 -206 1052 -196 q 1113 -187 1163 -164 q 1213 -140 1246 -96 q 1249 -92 1254 -93 q 1258 -94 1260 -98 z"},"x":{"x_min":0,"x_max":331,"ha":331,"o":"m 143 1 q 106 1 76 25 q 46 49 27 93 l 26 91 q 3 49 -10 12 q -24 -24 -32 -59 q -34 -64 -42 -65 q -49 -66 -48 -59 q -41 -19 -24 22 q -7 64 18 110 l 20 113 q 6 150 1 188 q -4 227 -6 262 q -9 298 -12 326 q -15 355 -23 371 q -25 374 -11 380 q 3 387 21 391 q 39 395 56 392 q 73 388 78 370 q 81 359 80 336 q 79 313 76 286 q 74 259 72 233 q 70 207 71 191 l 73 195 q 113 257 138 296 q 163 335 180 356 q 197 378 209 386 q 221 394 235 394 q 259 394 276 378 q 292 361 301 338 q 310 316 311 292 q 312 268 305 253 q 291 226 273 217 q 255 208 240 208 q 225 209 216 215 q 206 221 210 223 q 226 233 234 256 q 241 280 242 305 q 243 330 238 349 q 232 368 222 368 q 205 368 172 318 q 138 267 86 184 l 75 167 q 84 109 104 68 q 123 26 158 22 q 182 19 206 37 q 229 55 252 84 q 275 112 296 146 q 318 181 337 211 q 340 216 346 213 q 352 210 349 204 q 317 150 291 112 q 265 73 242 48 q 218 24 194 12 q 170 1 143 1 z"},")":{"x_min":0,"x_max":424,"ha":424,"o":"m 2 -170 q -2 -161 8 -158 q 55 -139 100 -98 q 144 -58 182 -4 q 221 51 252 116 q 283 180 302 247 q 321 314 326 379 q 332 444 320 500 q 308 555 277 597 q 246 639 191 660 q 183 663 185 672 q 188 679 195 679 q 197 679 198 678 q 309 641 367 553 q 393 513 407 466 q 421 418 421 364 q 421 284 393 204 q 364 122 312 49 q 285 11 253 -22 q 221 -55 184 -83 q 145 -113 102 -136 q 60 -160 14 -176 q 4 -180 2 -170 z"},"&":{"x_min":0,"x_max":495,"ha":495,"o":"m 611 -193 q 613 -203 604 -206 q 553 -224 505 -224 q 474 -224 447 -217 q 379 -198 328 -143 q 286 -99 258 -42 q 230 15 211 75 q 181 51 150 38 q 119 25 90 25 q 80 25 75 26 q 41 29 21 54 q 1 78 2 115 q 5 179 67 279 q 87 311 111 342 q 135 374 158 405 q 156 473 162 528 q 167 583 179 612 q 191 641 204 659 q 216 677 228 688 q 241 698 254 702 q 268 706 282 706 q 313 706 336 696 q 360 686 374 666 q 389 645 390 616 q 391 587 378 554 q 368 529 338 486 q 309 442 271 388 q 251 359 230 330 q 209 300 189 270 q 190 269 190 266 q 195 235 202 195 q 209 155 222 110 l 236 125 q 254 144 274 172 q 294 200 314 239 q 334 278 352 329 q 371 380 386 445 q 388 455 398 453 q 408 451 406 441 q 391 375 372 322 q 353 270 332 230 q 311 189 290 160 q 269 131 251 112 q 245 106 240 100 q 234 94 228 89 q 246 29 274 -28 q 301 -86 342 -129 q 445 -240 598 -187 q 607 -183 611 -193 z m 198 604 q 189 582 183 537 q 177 492 178 430 l 193 449 q 230 497 258 536 q 287 575 298 601 q 311 633 306 656 q 300 678 285 684 q 276 689 265 685 q 254 681 246 675 q 237 668 224 652 q 211 636 198 604 z m 129 172 q 95 111 90 82 q 85 52 100 47 q 114 42 142 56 q 171 70 205 96 q 193 137 186 175 q 178 213 173 245 q 148 208 129 172 z"},"_":{"x_min":0,"x_max":508,"ha":508,"o":"m 411 -100 q 411 -97 422 -111 q 434 -125 444 -144 q 455 -162 460 -181 q 465 -200 453 -208 q 442 -215 414 -218 q 385 -222 346 -222 q 307 -223 260 -221 q 214 -219 168 -216 q 121 -213 78 -208 q 34 -204 0 -199 q -33 -194 -54 -190 q -74 -185 -74 -182 q -74 -176 -39 -173 q -4 -170 49 -168 q 102 -166 164 -162 q 226 -159 280 -152 q 334 -145 371 -132 q 408 -120 411 -100 z"},"v":{"x_min":0,"x_max":310,"ha":310,"o":"m 62 1 q 27 5 12 32 q -4 58 -7 96 q -10 135 -4 180 q 2 225 10 266 q 18 307 24 339 q 29 371 25 383 q 24 386 37 390 q 50 393 67 394 q 84 395 100 392 q 116 388 122 376 q 127 366 120 336 q 114 306 102 267 q 91 228 78 184 q 66 141 58 105 q 50 69 50 44 q 51 20 66 18 q 100 14 129 36 q 158 59 179 96 q 200 132 212 176 q 225 220 227 258 q 229 297 219 324 q 209 350 185 353 q 181 353 192 365 q 202 377 218 386 q 234 395 252 394 q 269 394 280 370 q 289 350 287 314 q 285 277 274 234 q 262 192 242 148 q 222 105 194 70 q 167 36 134 16 q 100 -4 62 1 z"},"O":{"x_min":0,"x_max":1361,"ha":1361,"o":"m 74 161 q 69 159 63 165 q 40 197 26 230 q 12 263 5 297 q -5 357 12 421 q 23 461 44 498 q 65 536 95 569 q 121 598 152 622 q 183 645 214 659 q 258 678 300 687 q 342 696 382 698 q 421 700 459 698 q 497 695 532 692 q 589 687 640 686 q 690 686 736 707 q 753 721 770 734 q 787 746 804 755 q 815 761 867 758 q 919 755 895 738 q 784 660 704 548 q 624 437 587 305 q 569 241 564 178 q 560 114 568 56 q 576 -1 596 -50 q 617 -100 649 -136 q 670 -160 696 -179 q 723 -198 753 -209 q 783 -220 816 -222 q 848 -223 881 -212 q 927 -198 973 -172 q 1019 -146 1062 -110 q 1105 -74 1144 -30 q 1182 14 1213 64 q 1244 115 1266 170 q 1289 225 1302 280 q 1314 336 1316 390 q 1318 444 1309 492 q 1298 549 1269 602 q 1240 654 1198 686 q 1155 718 1100 724 q 1046 729 985 693 q 934 664 892 618 q 850 572 825 517 q 800 466 792 408 q 784 349 792 295 q 807 204 868 122 q 871 121 860 114 q 848 108 832 103 q 815 98 798 98 q 781 98 772 110 q 734 159 717 201 q 700 243 693 291 q 688 319 688 348 q 687 377 692 406 q 696 438 704 468 q 713 497 726 526 q 755 586 799 634 q 842 680 895 711 q 943 738 995 748 q 1047 758 1098 750 q 1142 743 1180 722 q 1218 700 1248 667 q 1278 634 1299 590 q 1320 547 1329 496 q 1338 446 1336 390 q 1334 335 1321 276 q 1307 218 1284 162 q 1262 105 1230 54 q 1166 -51 1075 -127 q 1030 -164 982 -191 q 935 -218 887 -232 q 860 -240 833 -244 q 806 -248 779 -248 q 739 -248 702 -239 q 613 -216 554 -149 q 520 -111 498 -60 q 477 -8 468 53 q 450 177 488 310 q 501 359 524 409 q 546 459 574 506 q 602 554 634 597 q 667 640 702 675 q 696 673 690 672 q 684 672 678 671 q 643 666 606 668 q 569 669 529 673 q 495 676 458 678 q 422 680 384 678 q 346 676 306 668 q 265 659 223 640 q 196 628 167 607 q 138 586 112 558 q 86 529 64 494 q 43 458 31 417 q 14 354 26 294 q 39 233 79 177 q 85 169 77 163 q 76 163 74 161 z"},"(":{"x_min":0,"x_max":426,"ha":426,"o":"m 421 671 q 425 662 415 659 q 368 640 324 600 q 279 559 240 504 q 202 450 171 386 q 140 321 121 254 q 102 187 96 122 q 91 57 103 2 q 115 -54 146 -96 q 177 -138 232 -159 q 240 -162 238 -171 q 234 -178 228 -178 q 226 -178 225 -177 q 114 -140 56 -52 q 30 -12 16 36 q 2 83 2 137 q 2 217 30 297 q 59 379 111 452 q 167 529 239 584 q 278 614 320 638 q 363 661 409 677 q 419 681 421 671 z"},"C":{"x_min":0,"x_max":896,"ha":896,"o":"m 913 215 q 922 212 918 202 q 908 177 892 142 q 876 108 854 69 q 833 30 806 -12 q 779 -54 746 -93 q 685 -168 623 -206 q 599 -221 576 -230 q 553 -240 529 -245 q 529 -246 528 -246 q 508 -250 484 -250 l 481 -250 q 443 -250 412 -234 q 380 -217 357 -186 q 316 -131 307 -45 q 303 0 307 48 q 311 97 325 150 q 343 218 367 282 q 391 345 423 403 q 443 439 466 474 q 387 471 310 466 q 233 461 171 446 q 109 432 68 404 q 28 377 23 329 q 19 320 11 320 q 1 320 3 331 q 13 429 163 465 q 229 481 310 486 q 390 491 471 494 l 479 494 q 497 520 516 544 q 535 568 555 590 q 588 627 624 656 q 660 686 695 707 q 764 748 819 750 q 857 752 880 734 q 907 716 914 681 q 930 614 897 569 q 874 541 833 522 q 792 504 726 493 q 691 488 652 484 q 613 480 572 478 q 532 419 492 337 q 453 255 424 146 q 406 75 405 10 q 404 -54 419 -106 q 435 -156 456 -182 q 478 -208 504 -216 q 530 -223 558 -214 q 587 -206 616 -186 q 646 -167 675 -140 q 704 -112 731 -81 q 763 -42 790 -1 q 816 40 837 78 q 858 117 874 151 q 890 185 900 209 q 903 217 913 215 z m 895 675 q 888 706 870 714 q 851 721 826 713 q 800 705 771 684 q 742 664 714 640 q 687 616 664 592 q 640 567 626 550 q 616 539 606 526 q 597 513 586 499 q 636 502 682 507 q 728 512 766 522 q 805 531 834 546 q 863 560 880 581 q 909 615 895 675 z"},"W":{"x_min":0,"x_max":1510,"ha":1510,"o":"m 1506 681 q 1513 637 1506 573 q 1498 513 1478 438 q 1458 364 1426 283 q 1405 230 1381 179 q 1357 128 1330 79 q 1273 -23 1211 -100 q 1178 -141 1144 -172 q 1111 -202 1079 -222 q 1020 -258 967 -258 q 960 -258 954 -258 q 948 -257 941 -256 q 906 -250 889 -222 q 874 -199 871 -160 q 868 -122 876 -63 q 884 -12 898 46 q 912 103 928 166 q 931 175 934 184 q 936 194 938 204 q 905 123 870 54 q 835 -15 799 -69 q 767 -118 734 -154 q 702 -191 669 -214 q 608 -258 549 -258 q 541 -258 534 -258 q 528 -257 521 -256 q 487 -250 471 -225 q 459 -205 456 -174 q 453 -144 460 -98 q 465 -58 476 -12 q 487 35 500 86 q 511 129 522 174 q 533 220 542 266 q 551 312 556 358 q 561 403 561 445 q 558 635 420 700 q 375 721 322 722 q 268 722 217 702 q 165 681 122 642 q 78 602 52 552 q 25 500 20 446 q 16 391 35 343 q 53 296 92 264 q 131 233 182 223 q 192 221 190 211 q 188 201 178 203 q 122 214 79 250 q 36 285 16 336 q -4 387 0 446 q 5 506 34 561 q 62 614 108 656 q 155 698 210 720 q 241 733 280 740 q 319 746 360 746 q 400 746 439 739 q 478 732 509 718 q 589 680 627 605 q 659 540 661 444 q 661 400 656 354 q 650 307 641 260 q 632 213 621 166 q 610 120 599 76 q 588 31 577 -15 q 566 -61 560 -101 q 553 -141 553 -172 q 553 -202 564 -217 q 574 -232 596 -229 q 618 -226 657 -198 q 719 -153 783 -58 q 835 21 885 131 q 935 241 977 369 q 979 376 987 376 l 1067 384 q 1072 384 1075 381 q 1078 376 1077 372 q 1067 323 1055 272 q 1043 222 1030 171 q 1010 96 994 28 q 978 -40 973 -96 q 967 -155 976 -184 q 985 -214 1002 -222 q 1020 -229 1044 -218 q 1069 -208 1096 -187 q 1123 -166 1149 -139 q 1175 -112 1196 -87 q 1254 -15 1309 84 q 1364 182 1407 291 q 1438 369 1458 442 q 1478 516 1486 576 q 1494 637 1486 676 q 1479 716 1458 730 q 1451 735 1456 744 q 1461 753 1469 747 q 1497 729 1506 681 z"},"A":{"x_min":0,"x_max":891,"ha":891,"o":"m 464 118 q 454 118 454 128 q 454 179 485 204 q 508 222 542 226 q 575 230 615 225 q 636 256 657 291 l 707 373 q 716 438 729 500 q 742 561 758 614 q 773 668 790 713 q 806 758 822 790 q 865 877 901 877 q 906 877 912 874 q 919 872 924 862 q 926 858 928 845 q 929 826 922 798 q 915 769 904 738 q 894 706 881 676 q 868 645 858 622 l 823 547 q 816 514 809 474 q 802 433 796 387 q 791 341 788 292 q 785 242 785 191 q 822 183 852 180 q 883 177 894 187 q 896 189 898 192 q 900 194 900 200 q 900 210 910 210 q 920 210 920 200 q 920 182 907 171 q 890 157 859 160 q 828 162 785 170 q 787 115 794 63 q 847 -309 1145 -182 q 1155 -179 1158 -187 q 1160 -197 1152 -200 q 1105 -220 1056 -233 q 1006 -246 958 -246 q 911 -246 868 -230 q 824 -215 790 -178 q 724 -107 703 27 q 689 101 691 191 q 674 195 658 198 q 641 201 625 203 q 577 131 530 68 q 482 4 436 -47 q 301 -200 200 -232 q 127 -253 71 -240 q 21 -228 -6 -187 q -21 -165 -28 -138 q -34 -110 -32 -80 q -27 -18 8 36 q 28 65 56 86 q 83 108 116 121 q 190 151 284 133 q 293 131 291 121 q 287 111 278 113 q 233 119 196 102 q 159 86 132 58 q 104 29 88 -6 q 71 -40 68 -69 q 65 -98 72 -128 q 78 -157 94 -180 q 110 -202 136 -212 q 161 -223 196 -212 q 291 -183 422 -35 q 466 14 511 75 q 556 136 603 206 q 570 209 542 206 q 515 203 498 189 q 474 169 474 128 q 474 118 464 118 z m 637 222 q 651 220 664 218 q 678 215 692 212 q 693 253 698 300 q 699 306 700 312 q 700 318 700 324 q 694 313 688 302 q 681 292 675 281 z m 840 631 q 856 667 870 701 q 883 735 893 765 q 903 795 908 818 q 914 842 914 856 q 909 847 898 820 q 888 792 878 763 q 867 734 858 700 q 849 667 840 631 z"},"f":{"x_min":0,"x_max":159,"ha":159,"o":"m 58 689 q 57 692 73 696 q 89 701 110 702 q 131 703 150 698 q 170 694 176 679 q 178 673 172 633 q 165 593 153 532 q 141 471 125 396 q 109 322 93 248 q 77 173 62 104 q 47 36 37 -12 q 75 36 104 92 q 134 148 162 208 q 166 216 172 212 q 175 212 176 208 q 178 204 176 201 q 146 133 113 72 q 80 10 31 -40 l 27 -64 q 37 -78 48 -92 q 59 -107 70 -121 q 86 -141 94 -157 q 101 -173 102 -186 q 104 -198 102 -207 q 99 -216 96 -221 q 86 -241 63 -244 q 40 -247 20 -239 q -19 -223 -36 -198 q -52 -174 -55 -146 q -58 -117 -52 -86 q -46 -56 -41 -27 q -35 8 -24 72 q -13 135 0 210 q 13 286 26 366 q 38 445 47 513 q 56 581 60 629 q 63 677 58 689 z m 56 -131 q 48 -120 38 -109 q 29 -98 22 -87 q 1 -155 8 -187 q 16 -219 36 -226 q 54 -233 67 -228 q 80 -223 84 -210 q 88 -196 82 -176 q 76 -155 56 -131 z"},"Q":{"x_min":0,"x_max":1361,"ha":1361,"o":"m 74 161 q 69 159 63 165 q 40 197 26 230 q 12 263 5 297 q -5 357 12 421 q 23 461 44 498 q 65 536 95 569 q 121 598 152 622 q 183 645 214 659 q 258 678 300 687 q 342 696 382 698 q 421 700 459 698 q 497 695 532 692 q 589 687 640 686 q 690 686 736 707 q 753 721 770 734 q 787 746 804 755 q 815 761 867 758 q 919 755 895 738 q 784 660 704 548 q 624 437 587 305 q 571 249 566 193 q 560 137 564 86 q 569 34 582 -12 q 596 -59 619 -96 q 655 -45 708 -3 q 764 40 830 62 q 872 77 920 82 q 967 87 1016 84 q 1065 81 1113 72 q 1161 63 1204 49 l 1213 64 q 1244 115 1266 170 q 1289 225 1302 280 q 1314 336 1316 390 q 1318 444 1309 492 q 1298 549 1269 602 q 1240 654 1198 686 q 1155 718 1100 724 q 1046 729 985 693 q 934 664 892 618 q 850 572 825 517 q 800 466 792 408 q 784 349 792 295 q 807 204 868 122 q 871 121 860 114 q 848 108 832 103 q 815 98 798 98 q 781 98 772 110 q 734 159 717 201 q 700 243 693 291 q 688 319 688 348 q 687 377 692 406 q 696 438 704 468 q 713 497 726 526 q 755 586 799 634 q 842 680 895 711 q 943 738 995 748 q 1047 758 1098 750 q 1142 743 1180 722 q 1218 700 1248 667 q 1278 634 1299 590 q 1320 547 1329 496 q 1338 446 1336 390 q 1334 335 1321 276 q 1307 218 1284 162 q 1262 105 1230 54 q 1226 46 1223 43 q 1240 37 1256 30 q 1272 24 1286 17 q 1352 -15 1400 -54 q 1448 -93 1489 -130 q 1513 -152 1536 -171 q 1558 -190 1581 -204 q 1604 -218 1628 -226 q 1652 -234 1679 -234 q 1708 -234 1736 -226 q 1764 -217 1790 -203 q 1827 -184 1858 -155 q 1888 -126 1909 -90 q 1911 -86 1915 -85 q 1919 -84 1922 -86 q 1931 -91 1926 -100 q 1903 -138 1870 -170 q 1838 -201 1799 -221 q 1766 -238 1729 -247 q 1692 -256 1654 -256 q 1647 -256 1640 -256 q 1634 -256 1627 -255 q 1556 -249 1479 -209 q 1443 -189 1410 -166 q 1378 -144 1350 -123 l 1316 -96 q 1285 -72 1254 -48 q 1223 -25 1190 -5 q 1140 -71 1075 -127 q 1030 -164 982 -191 q 935 -218 887 -232 q 860 -240 833 -244 q 806 -248 779 -248 q 739 -248 702 -239 q 613 -216 554 -149 q 520 -111 498 -60 q 477 -8 468 53 q 450 177 488 310 q 501 359 524 409 q 546 459 574 506 q 602 554 634 597 q 667 640 702 675 q 696 673 690 672 q 684 672 678 671 q 643 666 606 668 q 569 669 529 673 q 495 676 458 678 q 422 680 384 678 q 346 676 306 668 q 265 659 223 640 q 196 628 167 607 q 138 586 112 558 q 86 529 64 494 q 43 458 31 417 q 14 354 26 294 q 39 233 79 177 q 85 169 77 163 q 76 163 74 161 z m 881 -212 q 959 -188 1036 -130 q 1112 -73 1172 5 q 1136 26 1097 41 q 1043 60 983 63 q 965 64 944 63 q 889 61 837 43 q 773 22 720 -18 q 668 -59 632 -114 q 636 -120 640 -126 q 644 -131 649 -136 q 670 -160 696 -179 q 723 -198 753 -209 q 783 -220 816 -222 q 848 -223 881 -212 z"},"w":{"x_min":0,"x_max":526,"ha":526,"o":"m 278 1 q 239 6 224 37 q 209 68 208 113 q 182 62 146 29 q 111 -4 62 1 q 27 5 12 32 q -4 58 -7 96 q -10 135 -4 180 q 2 225 10 266 q 18 307 24 339 q 29 371 25 383 q 24 386 37 390 q 50 393 67 394 q 84 395 100 392 q 116 388 122 376 q 127 366 120 336 q 114 306 102 267 q 91 228 78 184 q 66 141 58 105 q 50 69 50 44 q 51 20 66 18 q 91 15 113 27 q 135 39 154 60 q 173 82 188 110 q 202 139 211 170 q 215 204 221 238 q 227 271 232 300 q 238 330 241 352 q 244 373 241 383 q 240 386 253 390 q 266 393 283 394 q 300 395 316 392 q 332 388 338 376 q 343 366 336 336 q 330 306 318 267 q 307 228 294 184 q 282 141 274 105 q 266 69 266 44 q 267 20 282 18 q 316 14 345 36 q 374 59 395 96 q 416 132 428 176 q 441 220 443 258 q 445 297 435 324 q 425 350 401 353 q 397 353 408 365 q 418 377 434 386 q 450 395 468 394 q 485 394 496 370 q 505 350 503 314 q 501 277 490 234 q 478 192 458 148 q 438 105 410 70 q 383 36 350 16 q 316 -4 278 1 z"},"-":{"x_min":0,"x_max":356,"ha":356,"o":"m 265 349 q 265 352 276 338 q 288 324 298 306 q 309 287 314 268 q 319 249 307 241 q 292 231 264 228 q 236 225 202 226 q 168 228 132 233 q 96 238 66 244 q 37 250 18 256 q 0 262 0 267 q 0 273 19 276 q 38 279 66 281 q 94 283 128 286 q 162 290 191 297 q 220 304 241 316 q 262 329 265 349 z"},"E":{"x_min":0,"x_max":886,"ha":886,"o":"m 879 693 q 890 676 893 654 q 896 632 894 612 q 889 571 863 545 q 833 516 782 515 q 735 513 678 525 q 622 537 559 554 l 550 530 q 527 463 544 404 q 547 392 552 383 q 603 396 656 398 q 712 398 744 383 q 765 374 771 362 q 777 351 777 343 q 778 330 769 318 q 760 306 743 297 q 719 283 678 278 l 677 278 q 672 277 667 276 q 662 276 657 276 q 628 274 592 278 q 555 281 523 299 q 521 301 517 303 q 496 288 478 270 q 459 253 442 233 q 384 164 364 85 q 344 3 370 -70 q 394 -139 455 -184 q 513 -227 567 -226 q 621 -224 681 -187 q 707 -170 730 -148 q 752 -126 768 -101 q 788 -70 798 -36 q 807 -3 803 28 q 799 58 784 82 q 768 107 743 121 q 717 136 685 139 q 653 142 618 134 q 609 131 606 141 q 604 151 613 153 q 651 163 688 160 q 724 156 753 139 q 782 122 800 94 q 818 65 822 30 q 827 -4 818 -41 q 808 -78 785 -112 q 768 -139 744 -162 q 720 -184 691 -204 q 660 -225 620 -238 q 579 -251 535 -252 q 491 -254 446 -242 q 402 -230 363 -200 q 297 -151 271 -77 q 244 2 265 90 q 286 173 346 246 q 400 309 470 348 q 455 369 445 398 q 435 430 437 466 q 439 502 451 537 q 459 559 469 578 q 411 594 355 605 q 299 616 248 617 q 191 618 140 595 q 90 572 58 531 q 33 499 26 462 q 18 426 28 388 q 30 384 28 380 q 25 377 21 376 q 11 372 9 383 q -2 425 6 466 q 15 508 43 543 q 77 588 131 612 q 158 625 188 631 q 218 637 248 637 q 302 636 361 624 q 420 612 480 596 q 505 636 538 668 q 568 696 604 716 q 639 736 677 746 q 749 767 801 752 q 853 736 879 693 z m 874 614 q 878 647 861 679 q 844 711 813 724 q 790 733 765 730 q 740 726 716 716 q 692 705 670 690 q 648 674 632 658 q 614 641 598 619 q 581 597 568 573 q 629 556 683 544 q 737 533 782 535 q 821 536 846 557 q 870 578 874 614 z m 757 343 q 757 353 742 364 q 728 374 698 375 q 667 376 638 366 q 609 355 581 342 q 601 324 623 311 q 645 298 677 298 q 694 298 708 303 q 723 308 734 314 q 757 328 757 343 z"},"s":{"x_min":0,"x_max":246,"ha":246,"o":"m 143 379 q 170 360 188 320 q 207 280 213 232 q 219 185 210 136 q 201 87 173 51 q 156 29 127 14 q 98 0 68 -2 q 38 -5 12 6 q -13 17 -25 46 q -32 64 -32 86 q -32 108 -27 130 q -22 153 -13 174 q -4 195 8 211 q 13 216 20 213 q 26 207 21 201 q 10 187 2 168 q -7 149 -12 128 q -16 107 -16 87 q -16 67 -9 52 q 0 32 14 26 q 27 21 41 24 q 55 28 69 37 q 83 46 93 57 q 121 87 130 128 q 140 169 133 212 q 126 255 104 296 q 81 337 46 366 q 42 370 51 376 q 60 383 76 387 q 91 391 110 390 q 128 389 143 379 z"},">":{"x_min":0,"x_max":335,"ha":335,"o":"m 41 150 q 52 149 74 158 q 95 166 122 180 q 148 193 177 209 q 206 225 232 239 q 257 253 276 263 q 296 273 304 275 q 296 281 276 294 q 256 308 230 326 q 203 343 173 362 q 143 380 116 397 q 88 414 66 427 q 44 440 33 445 q 30 446 34 460 q 39 473 47 486 q 55 500 65 508 q 75 515 85 505 q 96 493 116 473 q 137 453 162 429 q 188 405 215 379 q 242 353 266 330 q 290 308 308 291 q 325 274 332 267 q 325 264 308 248 q 290 233 266 212 q 243 190 217 165 q 191 140 166 118 q 142 96 122 80 q 103 63 93 59 q 83 54 73 68 q 63 82 55 100 q 47 119 42 134 q 38 150 41 150 z"},"l":{"x_min":0,"x_max":159,"ha":159,"o":"m 171 214 q 179 210 175 204 q 140 126 109 77 q 87 41 69 22 q 51 4 31 3 q 17 2 8 10 q 0 18 -5 32 q -10 45 -12 62 q -13 80 -13 99 q -13 117 -6 164 q 2 211 12 272 q 23 332 34 400 q 46 468 55 528 q 64 587 68 632 q 71 676 65 690 q 64 692 82 696 q 100 700 122 701 q 144 702 163 696 q 182 691 184 675 q 185 663 176 621 q 167 579 152 522 q 137 465 119 398 q 101 332 84 271 q 68 210 55 161 q 42 112 38 89 q 36 78 34 65 q 32 52 32 41 q 32 30 34 24 q 37 17 44 20 q 50 23 62 36 q 74 50 93 80 q 122 125 161 210 q 164 216 171 214 z"},"8":{"x_min":0,"x_max":453,"ha":453,"o":"m 401 284 q 450 235 450 179 q 450 147 433 116 q 416 85 386 61 q 352 35 303 21 q 276 13 238 10 q 201 6 162 10 q 123 13 88 26 q 52 38 30 62 q 7 87 1 119 q -5 151 6 183 q 26 237 91 285 q 115 304 142 320 q 170 335 198 349 q 175 363 154 378 q 132 394 115 412 q 65 462 65 517 q 65 549 82 580 q 99 612 129 636 q 159 659 198 672 q 236 686 275 686 q 307 686 343 674 q 379 663 406 635 q 429 610 434 578 q 440 546 429 514 q 420 488 398 462 q 377 435 345 411 q 330 400 314 390 q 298 380 281 371 l 303 357 q 329 340 354 323 q 380 306 401 284 z m 44 76 q 64 55 94 43 q 125 31 160 31 q 195 31 230 43 q 266 55 294 77 q 320 98 335 125 q 350 152 350 179 q 350 208 336 232 q 321 255 306 270 q 287 290 264 306 q 241 322 217 337 q 188 321 158 305 q 129 289 103 269 q 42 225 25 176 q 15 149 20 122 q 26 96 44 76 z m 391 621 q 353 661 310 658 q 266 655 222 620 q 195 599 180 572 q 165 545 165 518 q 165 489 180 466 q 194 442 209 426 q 220 415 234 404 q 248 394 262 383 q 281 394 298 404 q 316 415 333 427 q 362 450 382 474 q 402 497 410 521 q 420 547 415 574 q 410 601 391 621 z"},"e":{"x_min":0,"x_max":249,"ha":249,"o":"m 260 212 q 266 208 264 201 q 256 150 233 112 q 210 74 183 48 q 165 30 144 18 q 123 5 101 1 q 79 -3 58 5 q 36 13 17 37 q -2 61 -8 96 q -13 130 -8 168 q -2 207 13 246 q 28 284 50 316 q 72 348 100 369 q 127 390 158 394 q 166 395 179 392 q 192 388 202 367 q 207 355 205 340 q 203 325 199 313 q 194 296 186 279 q 178 262 167 246 q 128 187 81 171 q 69 132 68 96 q 66 61 76 41 q 87 21 110 22 q 134 24 170 58 q 193 81 216 116 q 239 152 250 208 q 252 214 260 212 z m 123 284 q 100 244 86 190 q 111 202 128 222 q 146 242 155 254 q 177 289 185 319 q 193 349 188 360 q 183 371 166 356 q 150 340 123 284 z"},"b":{"x_min":0,"x_max":320,"ha":320,"o":"m 70 689 q 69 692 86 696 q 103 701 124 702 q 146 703 165 698 q 184 694 188 679 q 191 669 184 635 q 178 601 166 552 q 155 504 140 444 q 125 385 110 324 q 135 363 161 379 q 171 385 188 390 q 205 395 219 391 q 261 380 278 330 q 288 300 288 263 q 287 226 278 190 q 269 153 254 120 q 239 87 222 63 q 206 41 191 28 q 176 15 162 8 q 147 1 133 -1 q 119 -3 107 -3 q 86 -3 73 4 q 60 10 52 21 q 53 16 53 12 q 53 8 55 6 q 56 4 46 2 q 35 0 21 0 q 7 1 -6 4 q -19 8 -23 18 q -27 28 -24 58 q -21 88 -14 132 q -6 175 4 229 q 14 283 25 339 q 36 395 46 450 q 57 506 64 554 q 70 601 72 636 q 75 672 70 689 z m 169 366 q 146 352 126 322 q 107 291 91 247 q 78 190 68 141 q 57 92 53 57 q 58 35 70 25 q 83 15 99 21 q 116 27 133 56 q 150 84 164 120 q 178 155 188 188 q 198 221 201 236 q 204 249 208 266 q 211 284 213 302 q 215 319 214 335 q 214 351 210 361 q 205 371 195 374 q 185 376 169 366 z"},"%":{"x_min":0,"x_max":536,"ha":536,"o":"m 157 542 q 141 542 126 546 q 112 551 102 561 q 91 571 85 586 q 79 600 81 620 q 82 639 92 654 q 102 669 116 678 q 130 688 146 693 q 163 698 179 698 q 195 698 210 693 q 225 688 236 678 q 247 669 253 654 q 259 639 258 620 q 256 600 246 586 q 236 571 222 561 q 207 551 190 546 q 173 542 157 542 z m 177 686 q 167 686 160 680 q 154 674 150 664 q 145 654 142 642 q 140 631 139 620 q 137 609 136 598 q 136 586 138 576 q 140 566 145 560 q 150 554 160 554 q 170 554 177 560 q 184 566 188 576 q 193 586 196 598 q 199 609 201 620 q 202 631 202 642 q 202 654 200 664 q 197 674 192 680 q 187 686 177 686 z m 347 2 q 331 2 316 6 q 302 11 292 21 q 281 31 275 46 q 269 60 271 80 q 272 99 282 114 q 292 129 306 138 q 320 148 336 153 q 353 158 369 158 q 385 158 400 153 q 415 148 426 138 q 437 129 443 114 q 449 99 448 80 q 446 60 436 46 q 426 31 412 21 q 397 11 380 6 q 363 2 347 2 z m 367 146 q 357 146 350 140 q 344 134 340 124 q 335 114 332 102 q 330 91 329 80 q 327 69 326 58 q 326 46 328 36 q 330 26 335 20 q 340 14 350 14 q 360 14 367 20 q 374 26 378 36 q 383 46 386 58 q 389 69 391 80 q 392 91 392 102 q 392 114 390 124 q 387 134 382 140 q 377 146 367 146 z m 385 689 q 385 691 394 694 q 403 697 416 699 q 429 701 444 702 q 459 703 472 701 q 484 699 492 694 q 500 689 499 679 q 498 670 480 638 q 463 607 435 562 q 407 516 372 460 q 336 405 300 347 q 263 289 228 233 q 194 177 167 130 q 140 84 124 51 q 107 18 108 6 q 108 4 97 2 q 86 0 72 0 q 59 1 47 4 q 35 8 35 18 q 35 28 50 58 q 64 88 88 132 q 112 175 143 229 q 174 283 206 339 q 239 395 270 450 q 301 506 326 554 q 351 601 367 636 q 383 672 385 689 z"},"m":{"x_min":0,"x_max":548,"ha":548,"o":"m 8 382 q 7 385 21 390 q 35 394 52 395 q 70 396 86 392 q 102 387 106 372 q 109 360 104 332 q 100 304 92 269 q 84 234 75 194 q 66 154 59 118 q 65 138 72 160 q 80 182 88 207 q 97 232 107 260 q 117 288 130 313 q 143 338 159 358 q 175 379 195 390 q 205 396 217 396 q 229 396 239 390 q 249 384 256 374 q 264 363 267 349 q 272 319 272 288 q 272 258 269 227 q 266 196 262 165 q 257 134 253 104 q 260 129 268 155 q 276 181 285 207 q 294 232 304 260 q 314 288 327 313 q 340 338 356 358 q 372 379 392 390 q 402 396 414 396 q 425 396 435 390 q 445 384 452 374 q 460 363 464 349 q 469 330 470 301 q 470 272 467 238 q 464 204 458 170 q 452 135 446 105 q 437 61 436 42 q 434 22 440 24 q 447 26 462 48 q 477 71 501 111 q 511 129 520 146 q 530 164 537 178 q 544 193 548 202 q 552 211 552 211 q 555 217 563 215 q 570 210 567 204 q 560 189 551 172 q 543 158 534 140 q 525 122 514 103 q 503 83 490 63 q 478 43 464 26 q 443 -1 422 2 q 401 5 384 29 q 372 45 371 76 q 370 108 374 145 q 379 182 386 222 q 393 261 399 294 q 405 326 406 347 q 408 368 400 370 q 387 373 372 352 q 356 331 342 302 q 327 274 316 245 q 305 216 300 202 q 289 169 280 136 q 270 102 262 74 q 253 41 246 11 q 245 10 245 9 l 245 4 q 245 2 238 0 q 230 -2 220 -2 q 211 -1 200 2 q 190 6 184 15 q 173 29 172 60 q 172 92 176 131 q 181 170 188 212 q 196 253 202 288 q 208 323 210 346 q 211 368 203 370 q 190 373 174 352 q 159 331 144 302 q 130 274 119 245 q 108 216 103 202 q 92 169 83 138 q 74 108 67 84 q 59 56 52 31 q 51 30 51 29 q 51 16 56 6 q 57 4 46 2 q 36 0 22 0 q 8 1 -5 4 q -18 8 -22 18 q -27 31 -25 56 q -23 82 -18 115 q -12 148 -5 186 q 2 223 7 259 q 12 295 13 327 q 14 359 8 382 z"},"#":{"x_min":0,"x_max":592,"ha":592,"o":"m 102 519 q 104 502 128 491 q 151 480 186 473 q 203 516 216 552 q 228 587 230 609 q 230 611 239 614 q 248 617 261 619 q 274 621 289 622 q 304 623 316 621 q 329 619 337 614 q 345 609 344 599 q 342 585 324 548 q 305 510 279 460 q 299 458 319 457 q 339 456 359 454 q 379 503 394 544 q 408 585 410 609 q 410 611 419 614 q 428 617 441 619 q 454 621 469 622 q 484 623 496 621 q 509 619 517 614 q 525 609 524 599 q 522 585 502 544 q 482 502 454 449 q 491 447 514 444 q 537 442 537 437 q 537 432 508 426 q 480 421 435 415 l 375 297 q 423 304 456 316 q 490 329 493 349 q 493 352 504 338 q 516 324 526 306 q 537 287 542 268 q 547 249 535 241 q 526 235 508 232 q 489 229 464 228 q 438 226 406 226 q 375 226 342 228 q 331 202 324 182 q 317 162 318 151 q 318 149 307 147 q 296 145 282 146 q 269 146 257 150 q 245 153 245 163 q 245 172 250 190 q 256 208 266 234 q 240 236 216 238 q 191 241 169 244 q 154 212 146 188 q 137 163 138 151 q 138 149 127 147 q 116 145 102 146 q 89 146 77 150 q 65 153 65 163 q 64 174 72 198 q 81 222 94 255 q 77 258 68 262 q 58 265 58 267 q 58 271 70 273 q 82 275 103 277 l 155 396 q 120 397 96 400 q 71 404 60 411 q 48 419 53 438 q 58 457 68 476 q 79 494 90 508 q 102 522 102 519 z m 247 398 q 231 368 216 339 q 201 310 187 282 q 236 284 288 288 l 338 404 q 315 402 292 400 q 270 399 247 398 z"},",":{"x_min":0,"x_max":200,"ha":200,"o":"m 13 109 q 10 109 18 114 q 27 118 42 124 q 56 129 73 134 q 90 138 105 138 q 129 138 135 120 q 141 103 136 77 q 132 51 120 22 q 107 -8 93 -34 q 79 -59 67 -75 q 55 -91 51 -89 q 45 -87 50 -71 q 54 -55 61 -33 q 68 -11 74 14 q 79 39 77 60 q 75 81 60 95 q 46 109 13 109 z"},"n":{"x_min":0,"x_max":352,"ha":352,"o":"m 8 382 q 7 385 21 390 q 35 394 52 395 q 70 396 86 392 q 102 387 106 372 q 109 360 104 332 q 100 304 92 269 q 84 234 75 194 q 66 154 59 118 q 65 138 72 160 q 80 182 88 207 q 97 232 107 260 q 117 288 130 313 q 143 338 159 358 q 175 379 195 390 q 205 396 216 396 q 228 396 238 390 q 248 384 256 374 q 263 363 267 349 q 272 330 272 301 q 273 272 270 238 q 267 204 261 170 q 255 135 249 105 q 240 61 238 42 q 237 22 244 24 q 250 26 265 48 q 280 71 304 111 q 314 129 324 146 q 333 164 340 178 q 347 193 351 202 q 355 211 355 211 q 358 217 366 215 q 373 210 370 204 q 363 189 354 172 q 346 158 337 140 q 328 122 317 103 q 306 83 294 63 q 281 43 267 26 q 246 -1 225 2 q 204 5 187 29 q 175 45 174 76 q 173 108 178 145 q 182 182 189 222 q 196 261 202 294 q 208 326 210 347 q 211 368 203 370 q 190 373 174 352 q 159 331 144 302 q 130 274 119 245 q 108 216 103 202 q 92 169 83 138 q 74 108 67 84 q 59 56 52 31 q 51 30 51 29 q 51 16 56 6 q 57 4 46 2 q 36 0 22 0 q 8 1 -5 4 q -18 8 -22 18 q -27 31 -25 56 q -23 82 -18 115 q -12 148 -5 186 q 2 223 7 259 q 12 295 13 327 q 14 359 8 382 z"},"h":{"x_min":0,"x_max":352,"ha":352,"o":"m 71 689 q 70 692 87 696 q 104 701 126 702 q 147 703 166 698 q 185 694 189 679 q 191 670 186 642 q 181 613 172 572 q 162 530 149 479 q 136 428 122 374 q 109 319 96 264 q 83 210 73 163 l 88 207 q 97 232 107 260 q 117 288 130 313 q 143 338 159 358 q 175 379 195 390 q 205 396 216 396 q 228 396 238 390 q 248 384 256 374 q 263 363 267 349 q 272 330 272 301 q 273 272 270 238 q 267 204 261 170 q 255 135 249 105 q 240 61 238 42 q 237 22 244 24 q 250 26 265 48 q 280 71 304 111 q 314 129 324 146 q 333 164 340 178 q 347 193 351 202 q 355 211 355 211 q 358 217 366 215 q 373 210 370 204 q 363 189 354 172 q 346 158 337 140 q 328 122 317 103 q 306 83 294 63 q 281 43 267 26 q 246 -1 225 2 q 204 5 187 29 q 175 45 174 76 q 173 108 178 145 q 182 182 189 222 q 196 261 202 294 q 208 326 210 347 q 211 368 203 370 q 190 373 174 352 q 159 331 144 302 q 130 274 119 245 q 108 216 103 202 q 94 174 86 148 q 77 121 70 98 q 64 76 60 60 q 55 44 53 37 q 53 26 54 18 q 54 11 56 6 q 57 4 46 2 q 36 0 22 0 q 8 1 -5 4 q -18 8 -22 18 q -26 28 -23 58 q -20 88 -12 132 q -5 175 5 229 q 15 283 26 339 q 37 395 48 450 q 58 506 64 554 q 71 601 74 636 q 76 672 71 689 z"},"z":{"x_min":0,"x_max":376,"ha":376,"o":"m 123 377 q 62 372 45 331 q 37 313 38 294 q 38 275 44 259 q 49 243 58 233 q 68 223 79 222 q 86 222 84 215 q 81 208 72 202 q 63 195 48 192 q 32 189 13 196 q -19 213 -23 252 q -27 292 -1 337 q 16 366 45 380 q 74 395 105 395 q 142 395 172 383 q 202 371 228 368 q 232 370 247 368 q 262 365 277 358 q 292 352 304 342 q 315 331 313 318 q 311 307 299 288 q 287 268 270 243 q 252 218 230 190 q 209 163 188 135 q 168 107 150 81 q 133 55 124 34 q 139 29 158 23 q 178 17 201 17 q 230 17 255 37 q 280 57 302 86 q 324 115 344 148 q 363 182 381 209 q 383 214 390 210 q 397 207 393 201 q 377 176 358 142 q 338 107 314 76 q 290 45 261 23 q 232 1 197 1 q 176 0 156 8 q 135 15 118 19 q 115 8 115 1 q 111 -2 100 0 q 89 2 78 8 q 66 14 58 23 q 49 32 49 43 q 49 56 60 77 q 71 98 88 124 q 106 151 126 180 q 147 210 166 240 q 185 270 200 298 q 216 327 223 351 q 197 358 171 368 q 145 379 123 377 z"},"B":{"x_min":0,"x_max":972,"ha":972,"o":"m 1034 208 q 1032 197 1024 197 q 998 195 959 190 q 920 184 872 172 l 876 157 q 897 68 855 -20 q 819 -96 742 -161 q 708 -189 670 -210 q 633 -232 596 -244 q 554 -258 520 -258 q 490 -258 470 -248 q 437 -232 432 -180 q 430 -140 455 -84 q 480 -27 545 29 q 594 71 651 104 q 708 137 773 161 q 762 197 736 222 q 709 246 676 262 q 643 278 607 286 q 571 294 540 296 q 540 294 540 292 q 539 291 539 289 q 529 245 518 199 q 508 153 494 107 q 481 61 464 17 q 446 -27 424 -66 q 373 -153 304 -197 q 232 -245 135 -251 q 130 -252 124 -252 q 119 -252 114 -252 q 81 -252 52 -241 q 22 -230 1 -209 q -20 -188 -30 -156 q -39 -124 -32 -82 q -27 -49 -8 -20 q 10 10 39 33 q 65 53 95 64 q 125 74 154 74 q 199 74 223 48 q 248 20 239 -33 q 239 -43 228 -43 q 219 -43 219 -33 q 228 9 206 34 q 189 54 151 54 q 129 54 103 46 q 77 37 53 20 q 29 2 12 -24 q -6 -49 -12 -82 q -19 -119 -10 -147 q -2 -175 16 -194 q 35 -213 62 -222 q 88 -232 117 -232 q 122 -232 126 -232 q 131 -232 136 -231 q 254 -221 328 -75 q 363 -3 386 85 q 410 173 430 258 q 444 321 458 377 q 472 433 489 477 q 497 496 508 517 q 519 538 542 557 q 594 599 696 599 l 697 599 q 705 599 705 589 q 703 579 693 579 q 671 579 654 568 q 637 557 624 542 q 611 527 602 510 q 594 494 590 483 q 576 449 566 407 q 556 365 545 318 q 573 321 604 330 q 635 340 666 354 q 696 368 724 388 q 752 408 774 432 q 834 499 820 579 q 811 627 781 660 q 751 694 710 711 q 668 728 620 730 q 571 731 525 715 q 489 702 454 681 q 420 660 391 634 q 362 608 339 578 q 316 548 303 517 q 267 433 310 360 q 315 353 307 347 q 297 340 293 349 q 269 387 267 432 q 265 476 285 522 q 299 556 324 589 q 348 622 381 651 q 413 678 448 700 q 484 721 520 734 q 592 759 670 757 q 751 756 814 723 q 901 677 919 585 q 936 497 868 420 q 843 392 808 368 q 774 344 732 327 q 718 322 705 318 q 692 313 678 309 q 705 304 732 294 q 760 285 785 270 q 810 256 831 236 q 852 216 865 190 q 913 203 954 209 q 995 215 1024 217 q 1034 217 1034 208 z m 453 -176 q 454 -215 472 -226 q 490 -237 518 -229 q 545 -221 578 -199 q 612 -177 643 -150 q 674 -123 699 -96 q 724 -68 736 -49 q 798 45 778 143 q 723 122 667 91 q 611 60 557 15 q 497 -37 474 -89 q 451 -141 453 -176 z"},"K":{"x_min":0,"x_max":989,"ha":989,"o":"m 1402 674 q 1409 667 1402 660 q 1397 652 1388 658 q 1329 707 1266 715 q 1203 723 1143 702 q 1083 680 1028 635 q 973 590 930 534 q 907 504 872 464 q 836 423 792 385 q 722 326 658 300 q 704 291 742 268 q 780 244 812 211 q 843 178 869 136 q 895 94 916 49 q 938 4 956 -44 q 974 -91 991 -136 q 1009 -186 1033 -206 q 1057 -226 1084 -224 q 1112 -222 1144 -202 q 1175 -183 1210 -153 q 1219 -146 1224 -153 q 1230 -159 1222 -167 q 1164 -219 1113 -238 q 1080 -250 1049 -250 q 1035 -250 1020 -247 q 978 -239 945 -207 q 912 -175 893 -124 l 887 -111 q 864 -45 834 26 q 805 96 764 153 q 671 280 534 279 q 530 279 525 284 q 513 193 496 107 q 480 21 449 -52 q 411 -145 349 -194 q 279 -250 182 -250 q 163 -250 144 -247 l 143 -247 q 108 -241 76 -225 q 45 -209 22 -183 q 0 -157 -12 -121 q -24 -85 -21 -39 q -18 3 0 39 q 19 75 53 103 q 82 128 119 142 q 156 155 191 155 q 245 155 279 123 q 296 106 304 80 q 313 55 311 23 q 309 13 300 13 q 289 13 291 23 q 294 80 263 108 q 237 135 189 135 q 156 135 124 122 q 91 110 64 87 q 37 64 20 32 q 2 0 -1 -39 q -4 -80 8 -114 q 19 -148 40 -172 q 61 -197 90 -211 q 119 -225 151 -225 q 206 -226 246 -201 q 286 -176 315 -134 q 344 -91 363 -34 q 382 22 395 86 q 408 150 417 218 q 426 285 434 349 q 445 429 456 499 q 466 569 485 629 q 422 627 358 620 q 293 612 237 589 q 162 557 122 496 q 82 436 75 342 q 76 338 73 335 q 70 332 65 332 q 57 332 55 342 q 64 448 112 516 q 155 575 231 608 q 291 633 358 640 q 426 647 493 649 q 503 669 518 688 q 533 707 557 722 q 581 736 616 744 q 650 753 698 753 l 703 753 q 717 752 729 749 q 741 746 750 740 q 773 725 773 706 q 774 700 772 691 q 769 682 760 672 q 746 657 714 646 q 689 638 657 635 q 625 632 587 631 q 585 625 583 620 q 581 614 580 609 q 564 555 554 488 q 544 422 534 348 l 527 296 q 529 297 530 298 q 532 299 534 299 q 573 305 616 329 q 660 353 705 397 q 746 435 780 476 q 814 518 835 546 q 864 583 900 615 q 935 647 976 672 q 1017 698 1061 715 q 1105 732 1148 739 q 1220 750 1284 734 q 1348 717 1402 674 z m 754 703 q 753 714 738 724 q 724 733 700 733 l 699 733 q 679 733 663 726 q 647 718 634 706 q 621 694 612 680 q 602 665 596 651 q 629 653 658 656 q 687 658 710 665 q 754 680 754 703 z m 590 295 q 590 295 592 294 l 592 295 z"},"R":{"x_min":0,"x_max":993,"ha":993,"o":"m 1050 -218 q 1052 -227 1043 -231 q 1023 -240 998 -246 q 972 -252 946 -252 q 919 -251 894 -243 q 869 -235 851 -217 q 818 -189 792 -148 q 767 -106 742 -58 q 722 -21 700 16 q 679 53 653 84 q 627 115 594 138 q 561 161 517 171 l 512 171 q 496 108 475 48 q 454 -12 424 -66 q 373 -153 304 -197 q 232 -245 135 -251 q 130 -252 124 -252 q 119 -252 114 -252 q 81 -252 52 -241 q 22 -230 1 -209 q -20 -188 -30 -156 q -39 -124 -32 -82 q -27 -49 -8 -20 q 10 10 39 33 q 65 53 95 64 q 125 74 154 74 q 199 74 223 48 q 248 20 239 -33 q 239 -43 228 -43 q 219 -43 219 -33 q 228 9 206 34 q 189 54 151 54 q 129 54 103 46 q 77 37 53 20 q 29 2 12 -24 q -6 -49 -12 -82 q -19 -119 -10 -147 q -2 -175 16 -194 q 35 -213 62 -222 q 88 -232 117 -232 q 122 -232 126 -232 q 131 -232 136 -231 q 254 -221 328 -75 q 363 -3 386 85 q 410 173 430 258 q 444 321 458 377 q 472 433 489 477 q 497 496 508 517 q 519 538 542 557 q 594 599 696 599 l 697 599 q 705 599 705 589 q 703 579 693 579 q 671 579 654 568 q 637 557 624 542 q 611 527 602 510 q 594 494 590 483 q 574 444 562 394 q 551 344 539 289 q 534 266 528 242 q 523 217 517 193 q 555 191 598 199 q 641 207 670 219 q 719 240 764 276 q 810 313 842 359 q 874 405 888 457 q 903 509 890 562 q 873 627 832 664 q 792 700 738 713 q 685 726 625 718 q 565 711 510 689 q 478 676 448 655 q 417 634 390 607 q 363 580 342 550 q 321 519 308 487 q 295 455 291 412 q 287 370 313 326 q 315 323 314 318 q 313 314 309 312 q 300 307 295 314 q 272 352 270 398 q 269 443 289 492 q 303 526 326 559 q 349 592 378 620 q 406 649 438 672 q 471 694 505 708 q 545 724 592 734 q 639 743 688 745 q 736 747 782 740 q 829 734 867 716 q 963 672 989 569 q 1003 511 988 453 q 975 400 938 348 q 904 300 856 262 q 809 224 756 201 q 732 191 706 184 q 679 177 650 173 q 703 144 748 86 q 780 44 804 -4 q 829 -51 853 -94 q 872 -128 886 -158 q 899 -188 917 -206 q 935 -225 962 -228 q 990 -232 1038 -213 q 1048 -209 1050 -218 z"},"T":{"x_min":0,"x_max":610,"ha":610,"o":"m 651 599 q 660 599 660 589 q 660 585 656 582 q 653 579 649 579 q 627 579 612 568 q 596 557 585 542 q 574 527 568 510 q 561 494 558 483 q 547 444 541 394 q 535 344 530 289 q 525 245 520 199 q 515 153 507 107 q 499 61 488 17 q 476 -27 458 -66 q 418 -153 354 -197 q 287 -245 191 -251 q 186 -252 180 -252 q 175 -252 170 -252 q 137 -252 106 -241 q 75 -230 52 -209 q 28 -188 14 -156 q 1 -124 3 -82 q 5 -49 20 -20 q 35 10 61 33 q 84 53 113 64 q 142 74 171 74 q 215 74 243 48 q 272 19 269 -33 q 269 -43 259 -43 q 249 -43 249 -33 q 252 10 228 34 q 208 54 170 54 q 148 54 123 46 q 98 37 76 20 q 55 2 40 -24 q 25 -49 23 -82 q 21 -119 32 -147 q 44 -175 65 -194 q 86 -213 114 -222 q 142 -232 171 -232 q 176 -232 180 -232 q 185 -232 190 -231 q 307 -221 363 -75 q 390 -3 402 85 q 415 173 425 258 q 432 321 439 377 q 446 433 458 477 q 463 496 472 517 q 481 538 501 557 q 549 599 650 599 z m 1019 749 q 1029 745 1024 736 q 995 674 949 645 q 908 618 847 617 q 792 615 730 630 q 669 645 603 665 q 540 684 476 700 q 413 715 354 716 q 291 717 242 696 q 194 676 166 638 q 136 596 134 536 q 132 476 158 401 q 162 392 152 388 q 151 388 150 388 q 150 387 149 387 q 142 387 139 394 q 111 477 114 544 q 118 605 150 650 q 181 692 234 714 q 287 737 354 736 q 386 735 442 726 q 498 717 566 706 q 633 695 704 686 q 775 678 837 679 q 899 680 944 694 q 990 709 1006 744 q 1010 753 1019 749 z"},"P":{"x_min":0,"x_max":993,"ha":993,"o":"m 697 599 q 705 599 705 589 q 703 579 693 579 q 671 579 654 568 q 637 557 624 542 q 611 527 602 510 q 594 494 590 483 q 574 444 562 394 q 551 344 539 289 q 534 266 528 242 q 523 218 517 194 q 536 192 558 194 q 579 195 600 199 q 620 203 639 208 q 658 213 673 219 q 722 240 768 276 q 813 313 845 359 q 877 405 891 457 q 905 509 893 562 q 882 608 857 638 q 832 668 800 686 q 769 705 734 714 q 698 722 665 724 q 623 720 584 712 q 546 703 514 690 q 482 677 451 656 q 420 635 393 608 q 366 581 345 550 q 324 519 311 487 q 305 471 300 452 q 295 433 294 412 q 294 392 298 370 q 303 348 316 326 q 320 320 312 312 q 304 306 298 315 q 275 353 274 398 q 272 443 292 492 q 305 526 328 559 q 351 592 380 620 q 408 649 441 672 q 474 694 508 708 q 541 722 580 730 q 619 739 659 743 q 660 744 664 744 l 666 744 q 670 745 674 745 q 677 745 680 745 q 792 753 870 716 q 967 672 991 569 q 999 541 999 512 q 999 483 990 453 q 978 400 941 348 q 906 300 859 262 q 812 224 758 201 q 719 184 672 176 q 625 167 579 167 q 561 167 544 168 q 527 170 512 172 q 496 109 475 48 q 454 -12 424 -66 q 373 -153 304 -197 q 232 -245 135 -251 q 130 -252 124 -252 q 119 -252 114 -252 q 81 -252 52 -241 q 22 -230 1 -209 q -20 -188 -30 -156 q -39 -124 -32 -82 q -27 -49 -8 -20 q 10 10 39 33 q 65 53 95 64 q 125 74 154 74 q 199 74 223 48 q 248 20 239 -33 q 239 -43 228 -43 q 219 -43 219 -33 q 228 9 206 34 q 189 54 151 54 q 129 54 103 46 q 77 37 53 20 q 29 2 12 -24 q -6 -49 -12 -82 q -19 -119 -10 -147 q -2 -175 16 -194 q 35 -213 62 -222 q 88 -232 117 -232 q 122 -232 126 -232 q 131 -232 136 -231 q 254 -221 328 -75 q 363 -3 386 85 q 410 173 430 258 q 444 321 458 377 q 472 433 489 477 q 497 496 508 517 q 519 538 542 557 q 594 599 696 599 l 697 599 z"},"|":{"x_min":0,"x_max":239,"ha":239,"o":"m 79 604 q 77 605 86 608 q 95 612 109 616 q 123 620 140 624 q 158 628 174 629 q 189 630 200 627 q 212 624 215 615 q 219 602 214 562 q 209 522 198 464 q 188 407 173 338 q 158 268 142 198 q 125 128 108 62 q 91 -4 77 -54 q 63 -105 52 -136 q 42 -166 39 -165 q 35 -164 38 -132 q 40 -99 46 -46 q 52 6 61 72 q 70 139 78 210 q 87 280 94 348 q 100 416 102 470 q 103 525 98 562 q 93 598 79 604 z"},"t":{"x_min":0,"x_max":159,"ha":159,"o":"m 384 670 q 384 673 396 659 q 407 645 418 626 q 428 608 433 589 q 438 570 426 562 q 415 555 388 552 q 362 550 326 550 q 290 551 248 555 q 205 559 163 564 q 153 526 141 481 q 129 436 116 388 q 103 341 90 295 q 78 249 67 208 q 56 168 48 137 q 41 106 38 89 q 36 78 34 65 q 32 52 32 41 q 32 30 34 24 q 37 17 44 20 q 50 23 62 36 q 74 50 93 80 q 122 125 161 210 q 164 216 171 214 q 179 210 175 204 q 140 126 109 77 q 87 41 69 22 q 51 4 31 3 q 17 2 8 10 q 0 18 -5 32 q -10 45 -12 62 q -13 80 -13 99 q -13 112 -9 142 q -5 172 2 212 q 9 252 18 300 q 26 347 34 396 q 42 444 50 491 q 57 538 62 578 q 10 587 -24 595 q -59 603 -59 608 q -59 614 -23 615 q 13 616 66 616 q 68 643 68 662 q 68 682 65 690 q 64 692 82 696 q 100 700 122 701 q 144 702 163 696 q 182 691 184 675 q 185 668 182 654 q 180 639 175 618 q 214 619 250 622 q 287 625 316 630 q 345 636 364 646 q 382 655 384 670 z"},"M":{"x_min":0,"x_max":1424,"ha":1424,"o":"m 1549 743 q 1553 735 1546 732 q 1473 670 1418 584 q 1364 499 1328 404 q 1292 310 1275 213 q 1258 116 1260 32 q 1261 -37 1274 -95 q 1286 -153 1312 -188 q 1337 -223 1378 -229 q 1418 -235 1475 -201 q 1484 -196 1489 -205 q 1491 -208 1490 -212 q 1489 -216 1486 -218 q 1435 -250 1387 -254 q 1382 -255 1378 -255 q 1375 -255 1370 -255 q 1337 -255 1306 -241 q 1251 -216 1214 -152 q 1198 -126 1186 -94 q 1175 -62 1170 -30 q 1154 58 1166 164 q 1178 270 1215 377 q 1239 449 1272 513 q 1305 577 1346 631 q 1296 589 1242 541 q 1189 493 1136 442 q 1083 391 1034 337 q 984 283 943 229 q 945 224 948 220 q 950 216 953 211 q 996 126 1002 55 q 1006 4 988 -40 q 969 -85 933 -111 q 907 -130 879 -134 q 874 -135 870 -135 q 866 -135 861 -135 q 848 -135 830 -132 q 813 -130 803 -120 q 784 -102 787 -56 q 792 -5 821 67 q 841 114 873 164 q 853 210 824 254 q 796 299 766 343 l 759 353 q 741 298 717 240 q 693 181 663 122 q 596 -12 520 -97 q 429 -200 331 -232 q 295 -244 256 -250 q 218 -255 180 -250 q 143 -246 109 -229 q 75 -212 49 -178 q 26 -149 13 -112 q 0 -74 -1 -32 q -2 10 9 50 q 20 91 41 127 q 90 207 176 243 q 230 266 288 268 q 345 270 402 259 q 412 257 410 248 q 408 238 398 240 q 329 252 275 234 q 221 216 184 180 q 146 144 125 94 q 104 45 100 -7 q 95 -67 110 -114 q 125 -161 155 -189 q 185 -217 228 -224 q 272 -231 325 -213 q 379 -195 427 -158 q 475 -120 516 -72 q 556 -24 588 29 q 621 82 646 131 q 677 193 702 255 q 726 317 745 374 q 712 423 687 468 q 662 514 657 557 q 649 619 671 672 q 690 719 723 739 q 742 750 758 748 q 774 747 787 738 q 800 728 808 712 q 816 696 819 678 q 828 632 814 558 q 810 538 805 514 q 800 490 793 463 q 807 437 825 410 q 843 383 863 354 q 880 328 898 302 q 915 275 932 248 q 964 290 1005 336 q 1046 381 1094 429 q 1182 517 1276 597 q 1369 677 1454 747 q 1454 748 1456 748 q 1458 748 1466 748 q 1474 748 1492 748 q 1509 749 1540 749 q 1547 749 1549 743 z m 840 59 q 808 -19 806 -60 q 805 -101 825 -108 q 832 -110 841 -105 q 850 -100 859 -92 q 868 -83 875 -73 q 882 -63 885 -55 q 891 -38 898 -11 q 905 16 902 54 q 899 96 882 141 q 856 98 840 59 z m 795 562 q 801 597 802 625 q 804 653 799 675 q 795 695 790 700 q 785 704 780 696 q 774 689 769 674 q 764 658 760 638 q 757 619 756 598 q 755 576 757 559 q 762 525 779 490 q 784 510 788 528 q 792 546 795 562 z"},"g":{"x_min":0,"x_max":354,"ha":354,"o":"m 325 374 q 327 363 320 322 q 312 282 300 226 q 287 171 272 109 q 257 47 245 -8 q 281 39 309 94 q 337 150 363 210 q 367 218 374 214 q 377 213 378 210 q 380 206 378 203 q 348 135 316 72 q 285 10 238 -39 q 236 -49 234 -58 q 232 -67 230 -76 q 224 -105 218 -136 q 211 -166 198 -192 q 184 -217 160 -234 q 136 -250 94 -250 q 73 -250 52 -238 q 32 -227 30 -205 q 29 -199 30 -190 q 31 -181 37 -170 q 43 -159 56 -146 q 69 -134 92 -122 q 108 -113 124 -104 q 139 -94 153 -85 q 161 -43 170 12 q 180 67 190 126 q 185 114 180 103 q 174 92 169 82 q 141 32 110 13 q 100 7 83 2 q 66 -3 52 1 q 10 12 -7 62 q -18 92 -17 129 q -16 166 -7 202 q 2 239 17 272 q 32 305 49 329 q 65 351 80 364 q 95 377 110 384 q 124 391 138 393 q 152 395 164 395 q 186 395 200 387 q 213 379 221 367 q 221 374 219 378 q 216 381 232 386 q 247 392 267 394 q 287 396 305 392 q 323 388 325 374 z m 102 26 q 134 44 161 94 q 188 145 205 217 q 210 249 214 277 q 217 305 219 326 q 215 352 202 364 q 189 377 172 371 q 155 365 138 336 q 121 308 107 272 q 93 237 83 204 q 73 171 70 156 q 65 136 60 108 q 56 80 57 57 q 58 34 68 22 q 77 11 102 26 z m 101 -137 q 74 -152 60 -168 q 47 -185 46 -199 q 45 -213 55 -222 q 65 -232 84 -232 q 105 -233 124 -206 q 143 -179 149 -108 q 138 -116 125 -123 q 112 -130 101 -137 z"},"j":{"x_min":0,"x_max":152,"ha":152,"o":"m 116 374 q 118 363 110 322 q 103 282 90 226 q 78 171 63 109 q 48 47 36 -8 q 72 39 100 94 q 128 150 154 210 q 158 218 165 214 q 168 213 170 210 q 171 206 169 203 q 139 135 108 72 q 76 10 29 -39 q 27 -49 25 -58 q 23 -67 21 -76 q 15 -105 8 -136 q 2 -166 -12 -192 q -25 -217 -49 -234 q -73 -250 -115 -250 q -136 -250 -156 -238 q -177 -227 -179 -205 q -180 -199 -179 -190 q -178 -181 -172 -170 q -166 -159 -153 -146 q -140 -134 -117 -122 q -101 -113 -86 -104 q -70 -94 -56 -85 q -49 -50 -40 -3 q -32 44 -24 94 q -16 144 -8 193 q 0 242 5 282 q 10 322 12 348 q 13 374 10 378 q 7 381 22 386 q 38 392 58 394 q 78 396 96 392 q 114 388 116 374 z m 19 499 q 19 520 33 534 q 47 549 68 549 q 89 549 104 534 q 118 520 118 499 q 118 478 104 464 q 89 450 68 450 q 47 450 33 464 q 19 478 19 499 z m -108 -137 q -135 -152 -148 -168 q -162 -185 -163 -199 q -164 -213 -154 -222 q -144 -232 -125 -232 q -104 -233 -85 -206 q -66 -179 -60 -108 q -71 -116 -84 -123 q -97 -130 -108 -137 z"},"i":{"x_min":0,"x_max":158,"ha":158,"o":"m 171 214 q 179 210 175 204 q 140 126 109 77 q 87 41 69 22 q 51 4 31 3 q 17 2 8 10 q 0 18 -5 32 q -10 45 -12 62 q -13 80 -13 99 q -13 126 -6 167 q 2 208 10 250 q 18 292 23 328 q 28 365 23 383 q 22 385 36 389 q 51 393 70 394 q 88 395 104 390 q 120 384 122 368 q 124 353 114 321 q 103 289 88 249 q 73 209 58 166 q 44 124 38 89 q 36 78 34 65 q 32 52 32 41 q 32 30 34 24 q 37 17 44 20 q 50 23 62 36 q 74 50 93 80 q 122 125 161 210 q 164 216 171 214 z m 31 499 q 31 520 45 534 q 59 549 80 549 q 101 549 116 534 q 130 520 130 499 q 130 478 116 464 q 101 450 80 450 q 59 450 45 464 q 31 478 31 499 z"},"y":{"x_min":0,"x_max":317,"ha":317,"o":"m 281 374 q 283 363 276 322 q 268 282 256 226 q 243 171 228 109 q 213 47 201 -8 q 237 39 265 94 q 293 150 319 210 q 323 218 330 214 q 333 213 334 210 q 336 206 334 203 q 304 135 272 72 q 241 10 194 -39 q 192 -49 190 -58 q 188 -67 186 -76 q 180 -105 174 -136 q 167 -166 154 -192 q 140 -217 116 -234 q 92 -250 50 -250 q 29 -250 8 -238 q -12 -227 -14 -205 q -15 -199 -14 -190 q -13 -181 -7 -170 q -1 -159 12 -146 q 25 -134 48 -122 q 64 -113 80 -104 q 95 -94 109 -85 q 117 -39 128 24 q 140 87 150 152 q 139 129 129 110 q 119 92 109 77 q 87 41 69 22 q 51 4 31 3 q 17 2 8 10 q 0 18 -5 32 q -10 45 -12 62 q -13 80 -13 99 q -13 126 -6 167 q 2 208 10 250 q 18 292 23 328 q 28 365 23 383 q 22 385 36 389 q 51 393 70 394 q 88 395 104 390 q 120 384 122 368 q 124 353 114 321 q 103 289 88 249 q 73 209 58 166 q 44 124 38 89 q 36 78 34 65 q 32 52 32 41 q 32 30 34 24 q 37 17 44 20 q 50 23 62 36 q 74 50 93 80 q 107 102 124 134 q 140 165 159 206 q 164 240 168 270 q 172 300 174 323 q 176 346 176 360 q 177 375 175 378 q 172 381 188 386 q 203 392 223 394 q 243 396 261 392 q 279 388 281 374 z m 57 -137 q 30 -152 16 -168 q 3 -185 2 -199 q 1 -213 11 -222 q 21 -232 40 -232 q 61 -233 80 -206 q 99 -179 105 -108 q 94 -116 81 -123 q 68 -130 57 -137 z"},"@":{"x_min":0,"x_max":468,"ha":468,"o":"m 441 604 q 475 528 457 415 q 445 334 413 291 q 396 269 382 262 q 367 256 358 255 l 354 255 q 331 255 320 270 q 308 285 303 301 q 294 287 280 266 q 266 246 249 229 q 227 207 207 201 q 183 191 158 204 q 135 216 128 244 q 120 270 124 300 q 129 331 136 355 q 144 383 156 412 q 169 440 183 465 q 208 510 238 530 q 256 542 270 542 q 285 543 294 539 q 310 532 319 519 l 322 516 l 322 514 q 326 509 328 502 q 331 496 333 488 q 344 449 332 396 q 330 386 320 388 q 310 391 312 400 q 324 489 307 493 q 290 497 250 426 q 232 395 220 363 q 208 331 203 303 q 201 293 200 277 q 200 261 203 248 q 206 236 214 232 q 221 229 235 243 q 252 260 266 280 q 279 301 288 315 l 295 327 q 297 330 300 334 q 304 337 309 335 q 315 335 317 327 q 322 298 332 286 q 341 273 357 275 q 377 276 400 308 q 424 341 438 418 q 448 473 442 520 q 436 566 420 600 q 405 634 382 652 q 359 671 334 671 q 304 671 276 655 q 249 639 226 612 q 202 585 182 550 q 161 514 145 475 q 104 377 100 292 q 95 207 127 144 q 155 92 188 70 q 220 48 254 51 q 289 54 324 80 q 360 105 395 147 q 400 154 409 149 q 416 144 411 135 q 351 52 266 29 l 251 26 l 250 26 q 233 22 211 22 q 185 22 160 28 q 136 34 114 47 q 72 70 44 110 q 17 151 6 204 q -6 262 3 330 q 12 402 47 484 q 97 603 184 661 q 223 687 264 696 q 304 704 342 693 q 409 675 441 604 z"},".":{"x_min":0,"x_max":126,"ha":126,"o":"m 14 49 q 14 70 28 84 q 42 99 63 99 q 84 99 98 84 q 113 70 113 49 q 113 28 98 14 q 84 0 63 0 q 42 0 28 14 q 14 28 14 49 z"},"p":{"x_min":0,"x_max":324,"ha":324,"o":"m 12 379 q 11 382 26 386 q 42 391 62 392 q 81 393 98 388 q 116 384 120 369 q 122 364 120 352 q 119 341 117 325 q 141 363 167 379 q 177 385 194 390 q 211 395 225 391 q 267 380 284 330 q 294 300 294 263 q 293 226 284 190 q 275 153 260 120 q 245 87 228 63 q 212 41 197 28 q 182 15 168 8 q 153 1 139 -1 q 125 -3 113 -3 q 90 -3 74 6 q 58 14 48 26 q 37 -21 28 -65 q 18 -109 12 -145 q 6 -181 4 -208 q 2 -234 7 -244 q 8 -246 -2 -248 q -13 -250 -27 -250 q -41 -249 -54 -246 q -67 -242 -71 -232 q -75 -222 -72 -194 q -70 -167 -64 -128 q -57 -88 -48 -40 q -38 8 -28 59 q -18 110 -8 160 q 1 210 7 253 q 13 296 15 329 q 17 362 12 379 z m 175 366 q 155 354 138 330 q 120 305 106 270 q 95 223 81 165 q 67 107 53 46 q 61 29 76 22 q 91 16 105 21 q 122 27 139 56 q 156 84 170 120 q 184 155 194 188 q 204 221 207 236 q 210 249 214 266 q 217 284 219 302 q 221 319 220 335 q 220 351 216 361 q 211 371 201 374 q 191 376 175 366 z"},"X":{"x_min":0,"x_max":707,"ha":707,"o":"m 975 -228 q 977 -232 974 -236 q 971 -239 967 -240 q 910 -251 852 -252 q 795 -253 742 -238 q 689 -224 642 -192 q 596 -159 560 -102 q 533 -60 514 -10 q 496 40 484 94 q 471 149 462 206 q 453 264 445 321 q 445 323 444 324 q 423 304 401 284 q 379 265 356 245 q 285 181 216 117 q 147 53 91 -10 q -29 -145 -41 -242 q -43 -252 -52 -252 q -63 -252 -61 -242 q -58 -213 -46 -184 q -35 -154 -15 -122 q 0 -93 24 -62 q 47 -32 76 2 q 133 65 203 130 q 273 195 345 259 l 441 347 q 429 433 414 509 q 398 585 369 638 q 340 691 292 714 q 245 738 169 720 q 159 718 157 727 q 157 737 166 739 q 193 745 222 748 q 252 750 282 748 q 311 746 340 738 q 368 730 393 714 q 445 678 478 607 q 495 569 508 524 q 520 480 528 430 q 550 451 570 472 q 591 493 609 513 q 731 649 744 745 q 746 755 755 755 q 759 755 762 752 q 765 750 764 745 q 757 690 718 625 q 700 596 677 566 q 654 535 623 501 q 603 478 580 454 q 557 431 532 407 q 538 376 542 344 q 547 311 552 277 q 558 230 565 183 q 572 136 581 91 q 590 46 602 4 q 614 -37 631 -73 q 656 -126 690 -160 q 725 -195 767 -212 q 809 -229 859 -230 q 909 -232 966 -220 q 970 -219 973 -222 q 976 -224 975 -228 z"},"*":{"x_min":0,"x_max":561,"ha":561,"o":"m 550 586 q 555 554 541 521 q 522 474 486 435 q 449 396 409 358 q 386 336 364 314 q 341 291 321 265 q 304 242 294 219 q 284 196 284 170 q 284 160 274 160 q 264 160 264 170 q 264 215 226 266 q 208 289 184 312 q 161 335 137 358 q 96 396 59 436 q 22 476 7 521 q -4 556 2 589 q 9 622 32 647 q 53 670 82 680 q 111 689 140 681 q 195 665 222 624 q 250 582 266 527 q 268 519 270 510 q 272 502 274 494 q 276 502 278 510 q 281 518 283 527 q 303 596 339 635 q 370 670 413 680 q 445 687 475 676 q 505 666 526 641 q 546 615 550 586 z m 523 528 q 534 555 532 582 q 529 608 510 628 q 487 652 466 646 q 446 640 429 619 q 412 598 400 570 q 388 542 382 521 q 377 501 372 480 q 366 458 364 434 q 363 426 348 422 q 333 417 315 416 q 297 416 281 420 q 265 425 264 435 q 262 449 257 476 q 252 502 247 522 q 228 585 199 620 q 170 654 146 654 q 129 654 118 642 q 108 631 102 612 q 97 594 98 571 q 99 548 106 526 q 120 484 156 446 q 191 408 231 371 q 253 351 274 330 q 295 309 313 287 q 330 310 352 330 q 373 351 396 373 q 434 409 470 446 q 505 484 523 528 z"},"Y":{"x_min":0,"x_max":1035,"ha":1035,"o":"m 1082 211 q 1086 202 1076 198 q 1041 183 1008 168 q 975 153 943 137 q 933 82 920 24 q 906 -34 884 -86 q 863 -137 830 -178 q 796 -220 746 -242 q 716 -254 692 -254 q 664 -254 647 -240 q 612 -213 623 -154 q 631 -113 660 -68 q 690 -23 740 22 q 784 61 836 96 q 859 208 876 305 q 894 402 911 500 q 900 466 887 430 q 874 395 860 360 q 796 194 727 104 q 674 35 622 14 q 621 14 621 14 q 621 13 620 13 q 598 5 577 5 q 564 5 554 8 q 515 15 497 44 q 487 61 486 84 q 484 106 488 132 q 493 159 502 190 q 510 220 520 253 q 538 313 554 378 q 570 443 566 505 q 556 643 418 708 q 373 729 320 729 q 266 729 215 709 q 163 688 119 648 q 75 609 49 559 q 23 508 18 453 q 13 398 32 351 q 51 304 90 272 q 129 241 180 230 q 190 228 188 219 q 186 209 176 211 q 119 222 76 257 q 34 292 14 343 q -7 394 -2 454 q 3 513 32 569 q 59 622 106 664 q 152 705 208 728 q 251 744 299 749 q 300 749 301 750 q 302 750 303 750 q 322 753 350 752 q 377 752 406 749 q 435 746 462 740 q 489 734 506 726 q 584 689 626 629 q 660 577 666 506 q 670 442 654 376 q 638 309 619 247 q 606 204 596 164 q 585 125 582 96 q 580 67 587 50 q 594 34 616 37 q 640 40 670 70 q 701 101 732 148 q 764 195 793 252 q 822 310 842 367 q 858 412 873 456 q 888 501 902 542 q 915 582 926 618 q 936 653 944 680 l 958 749 q 959 753 974 754 q 990 755 1008 754 q 1026 752 1041 749 q 1056 746 1055 741 l 949 166 q 949 164 948 164 q 948 163 948 161 q 977 175 1007 189 q 1037 203 1069 216 q 1079 219 1082 211 z m 646 -157 q 641 -180 648 -200 q 654 -221 669 -223 q 686 -225 703 -212 q 720 -199 736 -178 q 752 -156 766 -128 q 781 -100 793 -70 q 806 -38 816 -2 q 825 33 833 69 q 791 39 756 7 q 710 -35 682 -77 q 653 -119 646 -157 z"},"c":{"x_min":0,"x_max":249,"ha":249,"o":"m 81 171 q 69 132 68 96 q 66 61 76 41 q 87 21 110 22 q 133 24 169 58 q 192 81 216 116 q 239 152 250 208 q 252 214 260 212 q 266 208 264 201 q 256 150 232 112 q 209 74 182 48 q 164 30 143 18 q 122 5 100 1 q 79 -3 58 5 q 36 13 17 37 q -2 61 -8 96 q -13 130 -8 168 q -2 207 13 246 q 28 284 50 316 q 72 348 100 369 q 127 390 158 394 q 177 396 187 387 q 197 378 200 364 q 203 350 201 332 q 199 314 195 298 q 193 290 185 292 q 177 293 179 300 q 187 327 188 346 q 188 364 181 366 q 174 367 160 348 q 145 330 123 284 q 112 267 104 245 q 96 223 89 200 z"},"!":{"x_min":0,"x_max":217,"ha":217,"o":"m 78 727 q 76 728 85 732 q 94 735 108 739 q 122 743 140 747 q 157 751 172 752 q 188 753 200 750 q 211 747 214 738 q 218 725 214 693 q 210 661 201 617 q 192 573 180 521 q 167 469 152 416 q 138 364 124 316 q 109 267 96 230 q 84 192 74 170 q 65 148 62 149 q 58 150 60 174 q 61 199 66 238 q 70 276 76 326 q 83 376 90 428 q 96 480 100 531 q 104 582 104 624 q 104 665 98 693 q 92 721 78 727 z m 3 49 q 3 70 17 84 q 31 99 52 99 q 73 99 88 84 q 102 70 102 49 q 102 28 88 14 q 73 0 52 0 q 31 0 17 14 q 3 28 3 49 z"},"/":{"x_min":0,"x_max":473,"ha":473,"o":"m 353 689 q 353 691 362 694 q 371 697 384 699 q 397 701 412 702 q 427 703 440 701 q 452 699 460 694 q 468 689 467 679 q 466 670 448 638 q 431 607 403 562 q 375 516 340 460 q 304 405 268 347 q 231 289 196 233 q 162 177 135 130 q 108 84 92 51 q 75 18 76 6 q 76 4 65 2 q 54 0 40 0 q 27 1 15 4 q 3 8 3 18 q 3 28 18 58 q 32 88 56 132 q 80 175 111 229 q 142 283 174 339 q 207 395 238 450 q 269 506 294 554 q 319 601 335 636 q 351 672 353 689 z"},"[":{"x_min":0,"x_max":383,"ha":383,"o":"m 378 669 q 380 658 369 658 l 265 651 l 102 -152 l 225 -150 q 235 -150 235 -160 q 235 -170 225 -170 l 10 -174 q 5 -174 2 -171 q -1 -166 0 -162 l 168 657 q 170 663 176 665 l 368 678 q 378 678 378 669 z"},"6":{"x_min":0,"x_max":425,"ha":425,"o":"m 412 682 q 417 682 419 678 q 421 675 420 671 q 420 667 416 664 q 413 662 409 663 q 365 668 323 642 q 281 616 244 574 q 208 533 180 484 q 152 435 137 395 q 129 372 122 348 q 116 324 112 301 q 126 309 139 316 q 152 322 166 327 q 237 350 294 323 q 336 303 358 265 q 379 227 371 183 q 367 156 352 128 q 337 101 314 78 q 291 55 263 39 q 235 23 206 15 q 183 10 164 10 q 138 10 117 17 q 70 34 37 77 q 14 108 6 156 q -1 205 7 268 q 15 328 37 390 q 59 451 91 504 q 147 597 225 645 q 266 670 315 682 q 364 693 412 682 z m 172 308 q 138 295 107 274 q 99 215 106 166 q 112 118 133 89 q 163 49 198 46 q 234 43 266 62 q 298 82 322 116 q 346 151 352 186 q 358 223 340 256 q 321 288 286 305 q 269 313 240 317 q 211 321 172 308 z"},"r":{"x_min":0,"x_max":319,"ha":319,"o":"m 11 382 q 10 385 24 390 q 38 394 56 395 q 73 396 89 392 q 105 387 109 372 q 112 360 108 332 q 103 304 95 269 q 87 234 78 194 q 69 154 62 118 q 68 138 76 160 q 83 182 91 207 q 99 230 112 264 q 124 297 142 328 q 159 358 180 378 q 202 399 228 396 q 252 394 268 373 q 283 352 289 324 q 295 297 291 270 q 287 242 272 229 q 256 215 240 212 q 223 209 212 212 q 200 214 195 220 q 190 226 196 229 q 210 237 218 260 q 225 282 226 306 q 227 330 222 349 q 217 368 206 370 q 193 372 178 352 q 162 331 148 302 q 133 274 122 245 q 111 216 106 202 q 95 169 86 138 q 77 108 70 84 q 62 56 55 31 q 54 30 54 29 q 54 16 59 6 q 60 4 50 2 q 39 0 25 0 q 11 1 -2 4 q -15 8 -19 18 q -24 31 -22 56 q -20 82 -14 115 q -9 148 -2 186 q 5 223 10 259 q 15 295 16 327 q 17 359 11 382 z"},"2":{"x_min":0,"x_max":565,"ha":565,"o":"m 762 -202 q 767 -210 759 -216 q 717 -240 674 -240 q 619 -240 561 -200 q 516 -169 474 -122 q 432 -75 391 -26 q 371 -2 352 21 q 333 44 313 64 q 292 49 254 34 q 215 19 172 10 q 130 2 90 4 q 51 6 27 25 q 11 38 6 58 q 1 78 8 100 q 19 135 50 156 q 81 177 122 182 q 162 187 208 176 q 255 166 298 139 q 340 179 373 228 q 406 277 428 334 q 457 409 460 478 q 463 548 439 596 q 411 653 352 664 q 292 676 207 641 q 198 637 194 646 q 190 655 199 659 q 231 672 268 680 q 305 688 343 687 q 381 686 417 676 q 453 665 483 642 q 535 602 553 535 q 567 481 558 416 q 549 351 518 286 q 491 230 451 182 q 411 133 360 95 q 418 50 468 -7 q 519 -64 559 -113 q 581 -139 600 -164 q 619 -188 640 -203 q 661 -218 687 -218 q 713 -219 749 -198 q 757 -194 762 -202 z m 27 94 q 16 60 40 41 q 44 38 56 33 q 68 28 89 29 q 110 30 141 40 q 172 50 216 76 q 229 84 242 92 q 254 101 265 111 q 241 131 212 148 q 182 165 144 166 q 118 164 98 157 q 77 150 63 140 q 49 130 40 118 q 31 106 27 94 z"},"{":{"x_min":0,"x_max":308,"ha":308,"o":"m 302 666 q 312 664 309 654 q 308 650 304 648 q 301 645 297 647 q 275 655 262 633 q 248 611 238 572 q 228 534 220 486 q 212 437 201 392 q 190 347 172 312 q 155 276 128 263 q 106 258 97 249 q 88 240 86 230 q 83 213 92 202 q 101 192 112 184 q 124 175 134 168 q 144 160 144 149 q 137 119 132 84 q 127 50 125 16 q 123 -19 124 -50 q 126 -81 134 -104 q 141 -128 154 -140 q 168 -153 189 -149 q 194 -148 197 -151 q 200 -154 200 -158 q 202 -169 191 -169 q 170 -171 152 -172 q 134 -174 119 -174 q 54 -174 32 -148 q 21 -136 18 -118 q 14 -99 16 -74 q 19 -49 26 -16 q 33 17 43 59 l 64 152 q 66 172 58 180 q 51 188 40 195 q 29 201 19 210 q 9 218 7 237 q 5 245 9 254 q 13 264 27 271 q 35 276 44 278 q 54 281 64 283 q 69 284 76 286 q 83 287 85 289 q 102 313 110 340 q 119 366 123 394 q 127 421 126 450 q 126 478 125 505 q 124 530 124 553 q 124 576 127 596 q 130 616 137 632 q 144 648 158 659 q 199 693 302 666 z"},"9":{"x_min":0,"x_max":412,"ha":412,"o":"m 5 -3 q 0 -3 -2 0 q -4 4 -3 8 q -3 12 0 14 q 4 17 8 16 q 51 11 94 37 q 136 63 172 104 q 209 146 237 194 q 265 243 280 284 q 288 307 294 331 q 301 355 305 378 q 291 370 278 364 q 265 357 251 352 q 180 329 123 356 q 81 376 60 414 q 38 452 46 496 q 50 523 65 550 q 80 578 103 601 q 126 624 154 640 q 182 656 211 664 q 234 669 253 669 q 279 669 300 662 q 347 645 380 602 q 403 571 410 522 q 418 474 410 411 q 402 351 380 290 q 358 228 326 175 q 270 82 192 34 q 151 9 102 -2 q 53 -14 5 -3 z m 245 371 q 279 384 310 405 q 318 464 312 512 q 305 561 284 590 q 254 630 218 633 q 183 636 151 616 q 119 597 95 562 q 71 528 65 493 q 59 456 78 424 q 96 391 131 374 q 148 366 177 362 q 206 358 245 371 z"}," ":{"x_min":0,"x_max":215,"ha":215,"o":""},"I":{"x_min":0,"x_max":572,"ha":572,"o":"m 572 748 q 575 745 575 739 q 561 667 549 594 q 537 522 525 451 q 512 377 501 300 q 490 223 472 149 q 462 93 448 33 q 435 -27 412 -82 q 388 -136 350 -180 q 312 -224 252 -246 q 221 -257 190 -257 q 175 -257 160 -254 q 115 -246 82 -217 q 54 -192 45 -158 q 34 -121 45 -80 q 51 -59 62 -39 q 74 -19 90 -2 q 106 15 126 28 q 145 42 166 50 q 197 62 229 59 q 264 56 293 36 q 302 30 296 22 q 291 14 282 19 q 251 40 222 40 q 193 39 173 31 q 154 24 136 12 q 119 0 104 -16 q 90 -31 80 -48 q 69 -66 64 -85 q 55 -120 62 -150 q 70 -181 95 -202 q 126 -228 156 -228 q 187 -229 214 -212 q 241 -194 264 -162 q 288 -129 306 -90 q 322 -56 334 -18 q 345 19 354 54 q 362 88 367 118 q 372 147 375 166 q 388 238 400 307 q 413 376 424 443 l 471 705 q 416 689 350 667 q 284 645 223 616 q 162 588 114 554 q 65 519 44 480 q 33 460 27 437 q 21 414 20 393 q 18 339 53 313 q 79 293 108 304 q 128 311 144 329 q 161 347 168 370 q 171 380 181 377 q 190 373 187 365 q 179 337 159 315 q 139 293 114 285 q 76 271 41 296 q -2 328 0 393 q 1 417 8 442 q 15 468 26 490 q 51 536 117 581 q 145 599 180 618 q 215 636 258 653 q 297 669 338 684 q 380 698 420 710 q 459 723 496 733 q 532 743 562 751 q 567 753 572 748 z"},"H":{"x_min":0,"x_max":1200,"ha":1200,"o":"m 1789 761 q 1797 755 1792 747 q 1787 739 1778 743 q 1745 759 1709 764 q 1673 770 1636 768 q 1599 766 1561 758 q 1523 749 1485 738 q 1422 720 1367 684 q 1312 648 1266 600 q 1221 553 1185 495 q 1149 437 1124 374 q 1098 312 1084 247 q 1069 182 1067 119 q 1101 133 1142 152 q 1182 170 1210 195 q 1218 201 1225 194 q 1231 187 1224 180 q 1193 154 1150 134 q 1106 113 1066 98 q 1066 31 1080 -28 q 1094 -88 1124 -136 q 1160 -193 1212 -216 q 1264 -240 1318 -234 q 1373 -227 1424 -192 q 1474 -156 1506 -95 q 1511 -87 1519 -90 q 1528 -94 1523 -103 q 1483 -185 1399 -228 q 1364 -246 1332 -253 q 1301 -260 1281 -260 q 1266 -260 1236 -258 q 1207 -257 1172 -248 q 1137 -239 1101 -218 q 1065 -198 1036 -160 q 1003 -117 986 -60 q 969 -2 967 64 l 933 61 q 882 56 832 56 q 783 56 734 59 q 717 12 692 -33 q 662 -84 622 -126 q 583 -167 537 -193 q 474 -231 410 -236 q 411 -236 388 -238 q 366 -240 334 -239 q 301 -238 267 -232 q 233 -225 212 -209 q 193 -195 182 -184 q 171 -172 164 -160 q 158 -149 156 -137 q 153 -125 151 -110 q 147 -78 156 -46 q 166 -13 187 16 q 206 41 232 61 q 258 81 290 95 q 345 118 410 118 q 446 119 480 114 q 515 108 548 102 q 568 98 588 94 q 609 91 629 89 l 643 87 q 649 107 654 127 q 658 147 663 169 q 672 219 676 268 q 680 318 682 366 l 685 402 q 674 403 664 405 q 655 407 644 409 q 592 421 552 450 q 511 478 474 510 l 462 520 q 430 549 396 575 q 362 601 320 618 q 270 637 224 634 q 168 631 121 602 q 81 577 55 539 q 43 520 35 500 q 27 480 25 460 q 23 451 13 451 q 3 453 5 462 q 9 508 39 550 q 66 592 110 619 q 162 651 223 654 q 275 657 328 636 q 372 619 407 592 q 442 564 475 535 q 478 533 481 530 q 484 527 488 525 q 523 494 562 467 q 600 440 649 428 q 667 424 687 422 l 701 561 q 705 581 711 604 q 717 627 729 649 q 751 686 780 706 q 808 725 846 724 q 881 723 904 698 q 928 672 930 615 q 931 599 926 582 q 921 566 914 549 q 892 492 852 456 q 823 429 785 412 l 782 365 q 780 316 776 266 q 772 216 762 165 q 754 119 741 79 q 795 75 856 76 q 916 78 967 85 q 967 171 988 262 q 1009 354 1048 436 q 1088 519 1144 585 q 1199 651 1267 687 q 1355 743 1456 770 q 1558 798 1658 793 q 1737 788 1789 761 z m 171 -108 q 174 -134 188 -156 q 201 -178 223 -192 q 247 -209 276 -214 q 304 -219 334 -216 q 363 -212 392 -202 q 421 -191 447 -176 q 490 -150 528 -111 q 566 -72 594 -23 q 619 18 636 68 q 634 68 632 68 q 629 69 627 69 q 606 71 586 74 q 565 78 545 82 q 513 88 480 94 q 448 99 414 99 q 411 99 410 98 q 349 98 298 77 q 239 51 203 4 q 185 -22 176 -51 q 168 -80 171 -108 z m 910 616 q 911 646 903 662 q 895 679 882 682 q 869 684 854 674 q 839 663 827 639 q 817 619 811 598 q 805 577 801 557 q 791 496 786 435 q 816 448 839 470 q 875 504 896 556 q 909 589 910 616 z"},"4":{"x_min":0,"x_max":628,"ha":628,"o":"m 620 734 q 630 732 628 722 q 626 713 616 715 q 562 724 512 705 q 463 686 417 652 q 379 625 339 588 q 299 550 257 502 q 229 470 204 439 q 180 408 160 380 q 140 353 125 332 q 110 310 102 297 l 325 297 l 372 567 q 372 575 388 579 q 404 583 423 582 q 442 582 457 578 q 472 573 471 563 l 376 18 q 375 10 358 6 q 342 2 324 2 q 305 2 290 6 q 275 11 277 22 l 321 277 l 4 277 q -2 277 -5 282 q -8 287 -5 292 q -5 292 8 314 q 22 336 46 371 q 71 406 105 450 q 139 493 181 537 q 279 640 379 692 q 433 720 496 734 q 559 748 620 734 z"},"D":{"x_min":0,"x_max":1026,"ha":1026,"o":"m 1072 208 q 1072 199 1061 197 q 1041 195 1012 192 q 982 189 946 181 q 944 170 942 160 q 939 151 937 141 q 918 65 878 -5 q 843 -66 798 -117 q 752 -168 700 -203 q 662 -229 626 -242 q 589 -256 558 -256 q 538 -256 522 -250 l 520 -250 q 514 -250 512 -245 q 481 -228 476 -179 q 475 -159 480 -134 q 485 -110 498 -82 q 510 -55 532 -26 q 553 2 585 30 q 689 119 830 169 q 834 170 838 171 q 841 172 846 174 q 852 206 856 240 q 860 273 860 311 q 860 405 845 474 q 830 544 806 592 q 781 641 748 670 q 715 700 679 714 q 643 728 606 728 q 569 727 536 716 q 503 705 472 686 q 442 666 416 640 q 389 615 368 586 q 348 556 335 525 q 329 509 324 489 q 319 469 318 446 q 318 424 324 400 q 330 375 345 351 q 350 345 342 337 q 331 332 328 340 q 314 362 306 386 q 299 409 299 435 q 297 458 302 482 q 307 506 317 531 q 345 599 404 655 q 462 709 532 735 q 563 746 597 750 q 631 755 663 753 q 744 748 805 707 q 877 661 916 570 q 960 465 960 313 q 960 284 958 256 q 955 229 950 202 q 983 209 1012 212 q 1040 215 1062 217 q 1072 219 1072 208 z m 741 599 q 749 599 749 589 q 747 579 737 579 q 715 579 698 568 q 681 557 668 542 q 655 527 646 510 q 638 494 634 483 q 618 444 606 394 q 595 344 583 289 q 573 245 562 199 q 552 153 538 107 q 525 61 508 17 q 490 -27 468 -66 q 417 -153 348 -197 q 276 -245 179 -251 q 174 -252 168 -252 q 163 -252 158 -252 q 125 -252 96 -241 q 66 -230 45 -209 q 24 -188 14 -156 q 5 -124 12 -82 q 17 -49 36 -20 q 54 10 83 33 q 109 53 139 64 q 169 74 198 74 q 243 74 267 48 q 292 20 283 -33 q 283 -43 272 -43 q 263 -43 263 -33 q 272 9 250 34 q 233 54 195 54 q 173 54 147 46 q 121 37 97 20 q 73 2 56 -24 q 38 -49 32 -82 q 25 -119 34 -147 q 42 -175 60 -194 q 79 -213 106 -222 q 132 -232 161 -232 q 166 -232 170 -232 q 175 -232 180 -231 q 298 -221 372 -75 q 407 -3 430 85 q 454 173 474 258 q 488 321 502 377 q 516 433 533 477 q 541 496 552 517 q 563 538 586 557 q 638 599 740 599 z m 497 -175 q 498 -195 505 -210 q 512 -224 526 -226 q 554 -229 582 -215 q 610 -201 638 -177 q 665 -153 691 -122 q 717 -91 740 -59 q 767 -22 795 30 q 823 82 840 151 q 780 131 718 98 q 656 66 598 16 q 568 -10 548 -36 q 529 -63 517 -88 q 505 -113 500 -135 q 496 -157 497 -175 z"},"0":{"x_min":0,"x_max":453,"ha":453,"o":"m 421 599 q 453 530 450 426 q 447 353 429 283 q 419 247 406 214 q 393 180 376 151 q 358 119 338 94 q 318 69 295 52 q 245 13 187 11 l 183 11 q 74 11 28 99 q 5 140 0 198 q -6 255 6 322 q 17 385 42 446 q 66 506 99 556 q 143 620 194 653 q 251 691 309 683 q 316 683 322 682 q 328 681 334 679 q 335 679 335 678 q 391 663 421 599 z m 430 426 q 432 476 425 518 q 418 559 403 590 q 377 644 344 650 q 311 657 278 634 q 245 612 216 572 q 186 532 165 493 q 132 429 114 358 q 96 286 98 223 q 99 200 102 170 q 105 139 116 112 q 128 84 150 65 q 173 46 212 46 q 258 47 298 82 q 337 117 366 172 q 394 227 411 294 q 428 361 430 426 z"},"F":{"x_min":0,"x_max":758,"ha":758,"o":"m 338 128 q 328 128 328 138 q 328 189 359 214 q 382 233 422 236 l 425 258 q 432 321 439 377 q 446 433 458 477 q 463 496 472 517 q 481 538 501 557 q 549 599 650 599 l 651 599 q 660 599 660 589 q 660 585 656 582 q 653 579 649 579 q 627 579 612 568 q 596 557 585 542 q 574 527 568 510 q 561 494 558 483 q 547 444 541 394 q 535 344 530 289 l 524 230 q 547 226 570 221 q 593 216 616 211 q 640 205 664 200 q 689 195 710 192 q 730 190 746 190 q 761 191 768 197 q 770 199 772 202 q 774 204 774 210 q 774 220 784 220 q 794 220 794 210 q 794 192 781 181 q 771 173 754 171 q 738 169 716 172 q 694 174 668 180 q 642 185 612 191 q 589 196 566 201 q 544 206 521 210 q 513 138 499 67 q 485 -4 458 -66 q 418 -153 354 -197 q 287 -245 191 -251 q 186 -252 180 -252 q 175 -252 170 -252 q 137 -252 106 -241 q 75 -230 52 -209 q 28 -188 14 -156 q 1 -124 3 -82 q 5 -49 20 -20 q 35 10 61 33 q 84 53 113 64 q 142 74 171 74 q 215 74 243 48 q 272 19 269 -33 q 269 -43 259 -43 q 249 -43 249 -33 q 252 10 228 34 q 208 54 170 54 q 148 54 123 46 q 98 37 76 20 q 55 2 40 -24 q 25 -49 23 -82 q 21 -119 32 -147 q 44 -175 65 -194 q 86 -213 114 -222 q 142 -232 171 -232 q 176 -232 180 -232 q 185 -232 190 -231 q 307 -221 363 -75 q 386 -12 398 64 q 411 140 420 216 q 391 213 372 199 q 348 179 348 138 q 348 128 338 128 z m 1019 749 q 1029 745 1024 736 q 995 674 949 645 q 908 618 847 617 q 792 615 730 630 q 669 645 603 665 q 540 684 476 700 q 413 715 354 716 q 291 717 242 696 q 194 676 166 638 q 136 596 134 536 q 132 476 158 401 q 162 392 152 388 q 151 388 150 388 q 150 387 149 387 q 142 387 139 394 q 111 477 114 544 q 118 605 150 650 q 181 692 234 714 q 287 737 354 736 q 386 735 442 726 q 498 717 566 706 q 633 695 704 686 q 775 678 837 679 q 899 680 944 694 q 990 709 1006 744 q 1010 753 1019 749 z"},"`":{"x_min":0,"x_max":221,"ha":221,"o":"m 115 702 q 104 685 108 668 q 111 651 122 636 q 133 621 149 608 q 165 594 178 583 q 192 572 200 564 q 208 555 204 551 q 199 546 172 551 q 144 556 111 570 q 78 583 49 603 q 20 623 13 648 q 9 662 25 673 q 41 684 62 691 q 82 698 99 701 q 116 704 115 702 z"},"k":{"x_min":0,"x_max":414,"ha":414,"o":"m 374 61 q 376 62 376 44 q 375 27 370 6 q 366 -16 357 -33 q 348 -50 334 -48 q 318 -46 295 -26 q 272 -5 247 25 q 222 55 197 90 q 172 126 152 159 q 132 192 118 218 q 105 244 104 256 l 94 253 q 83 208 74 168 q 66 127 60 94 q 55 61 54 38 q 52 15 56 6 q 57 4 46 2 q 36 0 22 0 q 8 1 -5 4 q -18 8 -22 18 q -26 28 -23 58 q -20 88 -12 132 q -5 175 5 229 q 15 283 26 339 q 37 395 48 450 q 58 506 64 554 q 71 601 74 636 q 76 672 71 689 q 70 692 87 696 q 104 701 126 702 q 147 703 166 698 q 185 694 189 679 q 192 668 184 628 q 176 588 162 531 q 149 474 132 406 q 115 339 99 273 q 130 291 170 315 q 210 339 244 364 q 278 390 298 416 q 318 441 309 461 q 308 464 324 458 q 341 453 360 443 q 380 433 395 420 q 410 407 404 394 q 396 377 364 358 q 331 338 288 320 q 244 302 197 286 q 150 270 114 259 q 124 251 143 230 q 162 208 186 182 q 211 156 238 129 q 265 102 290 83 q 316 64 338 56 q 360 49 374 61 z"},"u":{"x_min":0,"x_max":315,"ha":315,"o":"m 328 214 q 336 210 332 204 q 297 126 266 77 q 244 41 226 22 q 208 4 188 3 q 174 2 166 10 q 157 18 152 32 q 147 45 146 62 q 144 80 144 99 q 144 109 145 122 q 146 134 148 148 q 137 127 128 110 q 118 92 109 77 q 87 41 69 22 q 51 4 31 3 q 17 2 8 10 q 0 18 -5 32 q -10 45 -12 62 q -13 80 -13 99 q -13 126 -6 167 q 2 208 10 250 q 18 292 23 328 q 28 365 23 383 q 22 385 36 389 q 51 393 70 394 q 88 395 104 390 q 120 384 122 368 q 124 353 114 321 q 103 289 88 249 q 73 209 58 166 q 44 124 38 89 q 36 78 34 65 q 32 52 32 41 q 32 30 34 24 q 37 17 44 20 q 50 23 62 36 q 74 50 93 80 q 107 102 123 132 q 139 163 157 203 q 162 230 168 257 q 173 284 176 308 q 180 333 182 352 q 183 372 180 383 q 179 385 194 389 q 208 393 226 394 q 245 395 261 390 q 277 384 279 368 q 281 353 270 321 q 260 289 245 249 q 230 209 216 166 q 201 124 195 89 q 193 78 191 65 q 189 52 189 41 q 189 30 192 24 q 194 17 200 20 q 207 23 219 36 q 231 50 250 80 q 279 125 318 210 q 321 216 328 214 z"},"]":{"x_min":0,"x_max":383,"ha":383,"o":"m 0 -165 q -2 -154 9 -154 l 113 -147 l 276 656 l 153 654 q 143 654 143 664 q 143 674 153 674 l 368 678 q 373 678 376 675 q 379 670 378 666 l 210 -153 q 208 -159 202 -161 l 10 -174 q 0 -174 0 -165 z"},"U":{"x_min":0,"x_max":1114,"ha":1114,"o":"m 1119 -170 q 1123 -173 1122 -177 q 1121 -181 1119 -184 q 1098 -212 1066 -232 q 1034 -251 1000 -251 q 968 -251 941 -231 q 908 -206 899 -144 q 890 -81 904 35 q 912 107 928 198 q 944 290 967 411 q 959 382 949 353 q 939 324 929 293 q 899 205 868 130 q 836 55 804 -6 q 762 -81 722 -134 q 681 -186 639 -215 q 588 -251 536 -251 q 523 -251 510 -248 q 477 -243 463 -217 q 449 -197 448 -166 q 446 -136 454 -90 q 461 -50 473 -4 q 485 42 501 93 q 525 181 547 274 q 569 368 571 453 q 574 643 439 708 q 394 729 340 729 q 287 729 236 709 q 183 688 138 648 q 93 609 65 559 q 38 508 32 453 q 25 398 42 351 q 59 304 97 272 q 135 241 186 230 q 196 228 194 219 q 192 209 182 211 q 125 222 84 257 q 42 292 24 343 q 6 394 12 454 q 18 513 48 569 q 77 622 125 664 q 173 705 229 728 q 260 740 299 746 q 338 753 378 754 q 419 754 458 748 q 497 741 527 726 q 607 688 643 612 q 657 579 664 540 q 672 500 672 451 q 670 407 664 360 q 657 314 646 268 q 636 221 624 174 q 611 128 598 84 q 586 42 574 -2 q 563 -46 555 -85 q 547 -124 545 -155 q 543 -186 550 -204 q 558 -221 576 -222 q 595 -222 629 -199 q 667 -171 707 -120 q 747 -70 785 3 q 817 63 848 137 q 880 211 910 299 q 938 384 960 462 q 983 540 998 600 q 1014 660 1022 698 q 1030 735 1031 738 q 1032 745 1048 748 q 1065 751 1084 750 q 1102 749 1116 745 q 1131 741 1130 735 q 1105 607 1084 502 q 1064 397 1048 310 q 1033 224 1022 155 q 1011 86 1005 29 q 991 -88 999 -146 q 1007 -204 1027 -217 q 1034 -222 1044 -220 q 1054 -217 1065 -210 q 1076 -202 1086 -192 q 1097 -181 1105 -172 q 1110 -164 1119 -170 z"},"o":{"x_min":0,"x_max":292,"ha":292,"o":"m 320 213 q 325 207 320 202 q 308 190 293 186 q 278 182 264 182 q 249 183 236 186 q 223 189 213 191 q 210 168 205 144 q 200 121 192 98 q 184 76 172 56 q 160 37 144 23 q 117 1 94 1 l 87 1 q 60 2 40 18 q 21 33 9 56 q -3 79 -8 106 q -12 133 -9 159 q -5 197 9 238 q 23 280 46 314 q 69 349 102 372 q 134 394 175 394 q 181 394 190 392 q 200 390 210 383 q 219 376 226 364 q 234 351 237 330 q 239 322 231 322 l 230 322 q 223 322 223 328 q 217 356 206 363 q 196 370 184 364 q 173 357 161 342 q 149 326 139 310 q 133 301 123 280 q 113 260 102 234 q 91 208 82 178 q 72 149 68 122 q 64 94 67 70 q 70 47 78 34 q 87 20 101 19 q 115 18 134 35 q 166 63 182 110 q 197 156 199 202 q 199 205 202 208 q 205 209 209 209 q 209 209 220 205 q 232 201 248 199 q 263 197 280 199 q 297 201 309 213 q 314 218 320 213 z"},"N":{"x_min":0,"x_max":1104,"ha":1104,"o":"m 1366 754 q 1371 753 1374 750 q 1377 747 1376 743 q 1376 732 1366 734 q 1281 742 1212 687 q 1142 632 1082 512 q 1060 466 1041 416 q 1022 365 1006 314 q 990 262 976 210 q 963 159 951 111 q 953 107 956 104 q 958 100 962 96 q 1004 36 1026 -8 q 1048 -53 1054 -85 q 1061 -129 1048 -167 q 1034 -205 1002 -230 q 969 -255 929 -255 q 892 -255 877 -240 q 862 -224 860 -184 q 858 -140 881 -75 q 887 -55 894 -31 q 900 -7 908 21 q 869 84 812 156 q 756 229 700 299 q 680 323 662 346 q 644 369 627 391 q 617 332 602 264 q 588 195 566 124 q 522 -16 466 -106 q 398 -213 312 -243 q 258 -261 210 -261 q 197 -261 184 -260 q 172 -258 160 -256 q 96 -240 54 -194 q 31 -168 16 -134 q 2 -101 -2 -63 q -6 -26 0 10 q 6 47 23 79 q 59 150 133 184 q 219 220 335 198 q 344 196 344 187 q 342 177 332 179 q 272 189 226 170 q 179 151 149 115 q 119 79 106 32 q 92 -15 98 -60 q 102 -103 120 -138 q 138 -174 166 -197 q 193 -220 228 -228 q 264 -236 304 -224 q 385 -197 448 -94 q 504 -6 546 132 q 569 207 584 280 q 600 352 610 413 q 567 469 538 514 q 509 559 502 589 q 496 619 498 644 q 499 668 505 686 q 511 705 520 718 q 530 730 540 737 q 573 756 601 737 q 630 718 642 672 q 655 627 649 562 q 648 553 647 540 q 646 526 643 509 q 672 467 712 416 q 751 366 795 311 q 830 266 866 222 q 903 177 935 133 q 958 228 988 330 q 1019 432 1064 522 q 1093 579 1124 622 q 1156 665 1188 694 q 1269 763 1366 754 z m 899 -82 q 878 -148 880 -182 q 881 -215 892 -228 q 896 -232 903 -232 q 910 -231 912 -229 q 934 -218 947 -183 q 953 -169 956 -144 q 960 -120 954 -87 q 951 -69 942 -48 q 934 -28 921 -5 q 916 -27 910 -46 q 905 -66 899 -82 z m 629 565 q 634 626 626 658 q 619 689 610 692 q 600 694 596 668 q 591 643 602 591 q 605 580 610 566 q 616 553 626 537 z"},"+":{"x_min":0,"x_max":422,"ha":422,"o":"m 128 460 q 125 460 139 472 q 153 483 172 494 q 190 504 209 509 q 228 514 236 502 q 247 485 249 442 q 251 399 248 347 q 285 355 310 367 q 336 379 339 399 q 339 402 350 388 q 362 374 372 356 q 383 337 388 318 q 393 299 381 291 q 365 280 327 278 q 289 275 242 277 q 239 247 234 220 q 230 192 226 171 q 221 150 217 138 q 213 125 210 125 q 205 125 202 138 q 200 151 198 173 q 197 195 196 223 q 194 251 191 281 q 155 284 122 288 q 88 293 62 298 q 36 303 20 308 q 4 313 4 317 q 4 322 20 324 q 36 327 62 329 q 87 331 120 333 q 152 335 185 338 q 178 386 165 421 q 152 456 128 460 z"},"G":{"x_min":0,"x_max":956,"ha":956,"o":"m 997 215 q 999 211 996 208 q 994 204 989 202 q 955 187 922 172 q 889 157 859 141 q 850 86 837 28 q 824 -30 803 -82 q 782 -133 749 -174 q 716 -216 667 -238 q 637 -250 614 -250 q 586 -250 568 -236 q 552 -223 545 -201 q 538 -179 543 -150 q 551 -109 580 -64 q 609 -19 657 26 q 697 63 751 100 l 785 289 q 767 251 741 208 q 715 166 683 126 q 635 63 586 32 q 536 1 487 1 l 485 1 q 426 1 391 50 q 375 70 366 97 q 357 124 353 156 q 349 189 352 226 q 356 262 365 302 q 392 404 439 491 l 463 535 q 385 527 307 516 q 229 504 166 479 q 103 454 64 411 q 24 368 23 298 q 21 288 12 288 q 8 288 5 290 q 2 293 3 298 q 5 375 51 426 q 87 471 166 500 q 234 526 314 537 q 395 548 478 556 q 492 576 506 594 q 521 613 537 630 q 561 658 588 680 q 614 702 640 718 q 692 748 735 750 q 742 750 752 750 q 762 749 772 744 q 783 738 792 727 q 802 716 808 697 q 815 677 812 657 q 808 637 797 622 q 771 587 712 571 q 653 555 575 546 q 538 492 510 430 q 483 367 467 298 q 440 195 460 118 q 475 61 500 44 q 525 27 556 38 q 586 50 619 82 q 652 115 682 157 q 701 184 720 218 q 740 252 755 283 q 770 314 780 338 q 790 361 791 367 q 791 369 808 372 q 825 376 844 377 q 864 378 880 373 q 895 368 894 352 q 894 350 890 330 q 887 309 882 280 q 878 252 873 222 q 868 191 865 170 q 864 168 864 165 q 891 179 922 193 q 952 207 985 220 q 988 222 992 220 q 996 219 997 215 z m 563 -153 q 559 -176 565 -195 q 571 -214 588 -216 q 610 -218 628 -206 q 645 -194 659 -173 q 673 -152 684 -124 q 696 -96 708 -66 q 721 -34 730 2 q 738 37 745 73 q 725 58 706 42 q 687 27 670 11 q 625 -31 598 -73 q 570 -115 563 -153 z m 780 633 q 797 655 789 691 q 782 713 769 718 q 756 723 740 716 q 723 709 704 694 q 685 678 667 659 q 649 640 633 620 q 617 601 606 588 l 591 568 q 659 576 709 590 q 759 605 780 633 z"},"q":{"x_min":0,"x_max":335,"ha":335,"o":"m 325 -28 q 325 -25 336 -39 q 348 -53 358 -72 q 369 -90 374 -109 q 379 -128 367 -136 q 350 -147 308 -148 q 265 -149 213 -144 q 207 -180 205 -205 q 203 -230 208 -241 q 209 -243 198 -245 q 188 -247 174 -246 q 160 -246 147 -242 q 134 -239 130 -229 q 126 -220 128 -195 q 131 -170 137 -135 q 106 -130 78 -124 q 49 -119 28 -114 q 6 -108 -6 -104 q -19 -99 -19 -96 q -19 -92 -5 -90 q 9 -87 32 -86 q 56 -86 86 -86 q 115 -85 147 -83 q 156 -39 167 10 q 178 58 189 109 l 175 82 q 147 32 116 13 q 106 7 89 2 q 72 -3 58 1 q 16 12 -1 62 q -12 92 -11 129 q -10 166 -1 202 q 8 239 23 272 q 38 305 55 329 q 71 351 86 364 q 101 377 116 384 q 130 391 144 393 q 158 395 170 395 q 191 395 204 388 q 217 381 225 370 l 223 382 q 222 385 238 390 q 253 394 272 395 q 292 396 310 392 q 327 387 331 372 q 334 359 324 312 q 314 264 297 199 q 280 134 261 60 q 242 -13 227 -77 q 267 -71 294 -60 q 322 -48 325 -28 z m 108 26 q 138 43 164 89 q 190 135 207 201 q 214 236 218 268 q 223 300 225 326 q 221 352 208 364 q 195 377 178 371 q 161 365 144 336 q 127 308 113 272 q 99 237 89 204 q 79 171 76 156 q 71 136 66 108 q 62 80 63 57 q 64 34 74 22 q 83 11 108 26 z"},"d":{"x_min":0,"x_max":356,"ha":356,"o":"m 368 214 q 376 210 372 204 q 337 126 306 77 q 284 41 266 22 q 248 4 228 3 q 214 2 206 10 q 197 18 192 32 q 187 45 186 62 q 184 80 184 99 q 184 102 184 106 q 184 111 185 116 q 181 107 177 98 q 173 90 169 82 q 141 32 110 13 q 100 7 83 2 q 66 -3 52 1 q 10 12 -7 62 q -18 92 -17 129 q -16 166 -7 202 q 2 239 17 272 q 32 305 49 329 q 65 351 80 364 q 95 377 110 384 q 124 391 138 393 q 152 395 164 395 q 190 395 204 384 q 218 374 225 360 q 234 414 243 468 q 252 522 258 567 q 263 612 264 645 q 266 678 262 690 q 261 692 279 696 q 297 700 319 701 q 341 702 360 696 q 379 691 381 675 q 383 663 374 621 q 364 579 349 522 q 334 465 316 398 q 298 332 282 271 q 265 210 252 161 q 239 112 235 89 q 233 78 231 65 q 229 52 229 41 q 229 30 232 24 q 234 17 240 20 q 247 23 259 36 q 271 50 290 80 q 319 125 358 210 q 361 216 368 214 z m 102 26 q 134 44 159 94 q 184 145 200 217 q 204 242 209 270 q 214 297 219 326 q 215 352 202 364 q 189 377 172 371 q 155 365 138 336 q 121 308 107 272 q 93 237 83 204 q 73 171 70 156 q 65 136 60 108 q 56 80 57 57 q 58 34 68 22 q 77 11 102 26 z"},"1":{"x_min":0,"x_max":329,"ha":329,"o":"m 231 683 q 234 689 250 692 q 267 695 284 695 q 302 695 316 690 q 330 686 329 676 l 214 19 q 213 12 196 8 q 180 3 161 2 q 142 2 127 7 q 112 12 114 23 l 221 629 q 213 618 204 606 q 195 593 185 579 q 110 482 56 478 q 26 476 6 502 q -1 510 7 516 q 15 523 21 515 q 36 497 55 498 q 77 500 104 522 q 130 544 154 574 q 179 603 200 634 q 220 664 231 683 z"},"5":{"x_min":0,"x_max":508,"ha":508,"o":"m 492 687 q 502 687 502 677 q 502 667 492 667 l 207 667 l 169 454 l 184 458 q 218 466 252 463 q 286 460 315 448 q 344 435 368 414 q 391 392 405 364 q 419 336 424 304 q 429 271 423 237 q 410 167 362 109 q 339 81 308 60 q 278 39 245 26 q 199 10 158 10 q 132 10 110 16 q 78 24 51 41 q 24 58 5 83 q 2 86 2 90 q 3 95 7 97 q 14 102 21 95 q 47 60 79 48 q 111 37 144 43 q 177 49 209 70 q 241 92 267 122 q 289 148 304 178 q 318 209 323 240 q 328 271 324 300 q 321 330 308 355 q 288 394 260 412 q 232 431 200 432 q 169 434 136 420 q 103 405 72 377 q 66 373 60 376 q 53 379 55 387 l 109 678 q 109 682 112 684 q 115 687 118 687 l 492 687 z"}}}
